<svg preserveAspectRatio="none" width="100%" height="100%" overflow="visible" style="display: block;" viewBox="0 0 278.116 278.121" fill="none" xmlns="http://www.w3.org/2000/svg">
<g id="Grid Ball">
<ellipse id="Ellipse 274" cx="139.058" cy="139.06" rx="138.058" ry="138.06" stroke="var(--stroke-0, #CDB9FF)" stroke-width="2"/>
<ellipse id="Ellipse 275" cx="139.058" cy="139.06" rx="136.028" ry="138.06" stroke="var(--stroke-0, #CDB9FF)" stroke-width="2"/>
<ellipse id="Ellipse 276" cx="139.057" cy="139.06" rx="132.644" ry="138.06" stroke="var(--stroke-0, #CDB9FF)" stroke-width="2"/>
<ellipse id="Ellipse 277" cx="139.058" cy="139.06" rx="128.583" ry="138.06" stroke="var(--stroke-0, #CDB9FF)" stroke-width="2"/>
<ellipse id="Ellipse 278" cx="139.058" cy="139.061" rx="123.846" ry="138.06" stroke="var(--stroke-0, #CDB9FF)" stroke-width="2"/>
<ellipse id="Ellipse 279" cx="139.058" cy="139.06" rx="118.432" ry="138.06" stroke="var(--stroke-0, #CDB9FF)" stroke-width="2"/>
<ellipse id="Ellipse 280" cx="139.059" cy="139.061" rx="113.018" ry="138.06" stroke="var(--stroke-0, #CDB9FF)" stroke-width="2"/>
<ellipse id="Ellipse 281" cx="139.059" cy="139.061" rx="106.927" ry="138.06" stroke="var(--stroke-0, #CDB9FF)" stroke-width="2"/>
<ellipse id="Ellipse 282" cx="139.058" cy="139.06" rx="100.16" ry="138.06" stroke="var(--stroke-0, #CDB9FF)" stroke-width="2"/>
<ellipse id="Ellipse 283" cx="139.058" cy="139.06" rx="92.7154" ry="138.06" stroke="var(--stroke-0, #CDB9FF)" stroke-width="2"/>
<ellipse id="Ellipse 284" cx="139.057" cy="139.06" rx="83.9175" ry="138.06" stroke="var(--stroke-0, #CDB9FF)" stroke-width="2"/>
<ellipse id="Ellipse 285" cx="139.058" cy="139.061" rx="73.7662" ry="138.06" stroke="var(--stroke-0, #CDB9FF)" stroke-width="2"/>
<ellipse id="Ellipse 286" cx="139.058" cy="139.061" rx="61.5847" ry="138.06" stroke="var(--stroke-0, #CDB9FF)" stroke-width="2"/>
<ellipse id="Ellipse 287" cx="139.058" cy="139.06" rx="48.0496" ry="138.06" stroke="var(--stroke-0, #CDB9FF)" stroke-width="2"/>
<ellipse id="Ellipse 288" cx="139.057" cy="139.06" rx="32.4842" ry="138.06" stroke="var(--stroke-0, #CDB9FF)" stroke-width="2"/>
<ellipse id="Ellipse 289" cx="139.059" cy="139.061" rx="12.8583" ry="138.06" stroke="var(--stroke-0, #CDB9FF)" stroke-width="2"/>
</g>
</svg>
