<svg preserveAspectRatio="none" width="100%" height="100%" overflow="visible" style="display: block;" viewBox="0 0 112.699 112.717" fill="none" xmlns="http://www.w3.org/2000/svg">
<g id="Grid Ball">
<ellipse id="Ellipse 274" cx="56.3493" cy="56.3586" rx="55.8493" ry="55.8585" stroke="var(--stroke-0, #CDB9FF)"/>
<ellipse id="Ellipse 275" cx="56.3495" cy="56.3586" rx="55.0279" ry="55.8585" stroke="var(--stroke-0, #CDB9FF)"/>
<ellipse id="Ellipse 276" cx="56.3486" cy="56.3587" rx="53.6591" ry="55.8585" stroke="var(--stroke-0, #CDB9FF)"/>
<ellipse id="Ellipse 277" cx="56.3488" cy="56.3589" rx="52.0165" ry="55.8585" stroke="var(--stroke-0, #CDB9FF)"/>
<ellipse id="Ellipse 278" cx="56.3494" cy="56.3586" rx="50.1001" ry="55.8585" stroke="var(--stroke-0, #CDB9FF)"/>
<ellipse id="Ellipse 279" cx="56.3486" cy="56.3588" rx="47.9099" ry="55.8585" stroke="var(--stroke-0, #CDB9FF)"/>
<ellipse id="Ellipse 280" cx="56.3495" cy="56.3587" rx="45.7197" ry="55.8585" stroke="var(--stroke-0, #CDB9FF)"/>
<ellipse id="Ellipse 281" cx="56.3491" cy="56.3589" rx="43.2558" ry="55.8585" stroke="var(--stroke-0, #CDB9FF)"/>
<ellipse id="Ellipse 282" cx="56.349" cy="56.3588" rx="40.5181" ry="55.8585" stroke="var(--stroke-0, #CDB9FF)"/>
<ellipse id="Ellipse 283" cx="56.3491" cy="56.3586" rx="37.5066" ry="55.8585" stroke="var(--stroke-0, #CDB9FF)"/>
<ellipse id="Ellipse 284" cx="56.349" cy="56.3586" rx="33.9476" ry="55.8585" stroke="var(--stroke-0, #CDB9FF)"/>
<ellipse id="Ellipse 285" cx="56.3489" cy="56.3589" rx="29.841" ry="55.8585" stroke="var(--stroke-0, #CDB9FF)"/>
<ellipse id="Ellipse 286" cx="56.3495" cy="56.3586" rx="24.9132" ry="55.8585" stroke="var(--stroke-0, #CDB9FF)"/>
<ellipse id="Ellipse 287" cx="56.3492" cy="56.3587" rx="19.4377" ry="55.8585" stroke="var(--stroke-0, #CDB9FF)"/>
<ellipse id="Ellipse 288" cx="56.3488" cy="56.3585" rx="13.141" ry="55.8585" stroke="var(--stroke-0, #CDB9FF)"/>
<ellipse id="Ellipse 289" cx="56.349" cy="56.3588" rx="5.20165" ry="55.8585" stroke="var(--stroke-0, #CDB9FF)"/>
</g>
</svg>
