<svg preserveAspectRatio="none" width="100%" height="100%" overflow="visible" style="display: block;" viewBox="0 0 258.069 258.069" fill="none" xmlns="http://www.w3.org/2000/svg">
<g id="Grid Ball">
<ellipse id="Ellipse 274" cx="129.034" cy="129.034" rx="128.034" ry="128.034" stroke="var(--stroke-0, #CDB9FF)" stroke-width="2"/>
<ellipse id="Ellipse 275" cx="129.035" cy="129.034" rx="126.152" ry="128.034" stroke="var(--stroke-0, #CDB9FF)" stroke-width="2"/>
<ellipse id="Ellipse 276" cx="129.035" cy="129.034" rx="123.014" ry="128.034" stroke="var(--stroke-0, #CDB9FF)" stroke-width="2"/>
<ellipse id="Ellipse 277" cx="129.035" cy="129.034" rx="119.248" ry="128.034" stroke="var(--stroke-0, #CDB9FF)" stroke-width="2"/>
<ellipse id="Ellipse 278" cx="129.035" cy="129.034" rx="114.854" ry="128.034" stroke="var(--stroke-0, #CDB9FF)" stroke-width="2"/>
<ellipse id="Ellipse 279" cx="129.035" cy="129.034" rx="109.833" ry="128.034" stroke="var(--stroke-0, #CDB9FF)" stroke-width="2"/>
<ellipse id="Ellipse 280" cx="129.035" cy="129.034" rx="104.813" ry="128.034" stroke="var(--stroke-0, #CDB9FF)" stroke-width="2"/>
<ellipse id="Ellipse 281" cx="129.035" cy="129.035" rx="99.1639" ry="128.034" stroke="var(--stroke-0, #CDB9FF)" stroke-width="2"/>
<ellipse id="Ellipse 282" cx="129.035" cy="129.034" rx="92.8877" ry="128.034" stroke="var(--stroke-0, #CDB9FF)" stroke-width="2"/>
<ellipse id="Ellipse 283" cx="129.035" cy="129.034" rx="85.9839" ry="128.034" stroke="var(--stroke-0, #CDB9FF)" stroke-width="2"/>
<ellipse id="Ellipse 284" cx="129.034" cy="129.034" rx="77.8249" ry="128.034" stroke="var(--stroke-0, #CDB9FF)" stroke-width="2"/>
<ellipse id="Ellipse 285" cx="129.035" cy="129.034" rx="68.4106" ry="128.034" stroke="var(--stroke-0, #CDB9FF)" stroke-width="2"/>
<ellipse id="Ellipse 286" cx="129.035" cy="129.034" rx="57.1134" ry="128.034" stroke="var(--stroke-0, #CDB9FF)" stroke-width="2"/>
<ellipse id="Ellipse 287" cx="129.035" cy="129.034" rx="44.561" ry="128.034" stroke="var(--stroke-0, #CDB9FF)" stroke-width="2"/>
<ellipse id="Ellipse 288" cx="129.035" cy="129.034" rx="30.1258" ry="128.034" stroke="var(--stroke-0, #CDB9FF)" stroke-width="2"/>
<ellipse id="Ellipse 289" cx="129.035" cy="129.034" rx="11.9248" ry="128.034" stroke="var(--stroke-0, #CDB9FF)" stroke-width="2"/>
</g>
</svg>
