<svg preserveAspectRatio="none" width="100%" height="100%" overflow="visible" style="display: block;" viewBox="0 0 797.126 797.282" fill="none" xmlns="http://www.w3.org/2000/svg">
<g id="Grid Ball">
<ellipse id="Ellipse 274" cx="398.563" cy="398.64" rx="398.063" ry="398.139" stroke="var(--stroke-0, #CDB9FF)"/>
<ellipse id="Ellipse 275" cx="398.563" cy="398.641" rx="392.209" ry="398.139" stroke="var(--stroke-0, #CDB9FF)"/>
<ellipse id="Ellipse 276" cx="398.559" cy="398.64" rx="382.452" ry="398.139" stroke="var(--stroke-0, #CDB9FF)"/>
<ellipse id="Ellipse 277" cx="398.56" cy="398.642" rx="370.745" ry="398.139" stroke="var(--stroke-0, #CDB9FF)"/>
<ellipse id="Ellipse 278" cx="398.563" cy="398.641" rx="357.086" ry="398.139" stroke="var(--stroke-0, #CDB9FF)"/>
<ellipse id="Ellipse 279" cx="398.559" cy="398.641" rx="341.475" ry="398.139" stroke="var(--stroke-0, #CDB9FF)"/>
<ellipse id="Ellipse 280" cx="398.565" cy="398.64" rx="325.865" ry="398.139" stroke="var(--stroke-0, #CDB9FF)"/>
<ellipse id="Ellipse 281" cx="398.565" cy="398.64" rx="308.304" ry="398.139" stroke="var(--stroke-0, #CDB9FF)"/>
<ellipse id="Ellipse 282" cx="398.559" cy="398.642" rx="288.791" ry="398.139" stroke="var(--stroke-0, #CDB9FF)"/>
<ellipse id="Ellipse 283" cx="398.564" cy="398.639" rx="267.327" ry="398.139" stroke="var(--stroke-0, #CDB9FF)"/>
<ellipse id="Ellipse 284" cx="398.559" cy="398.641" rx="241.96" ry="398.139" stroke="var(--stroke-0, #CDB9FF)"/>
<ellipse id="Ellipse 285" cx="398.559" cy="398.643" rx="212.69" ry="398.139" stroke="var(--stroke-0, #CDB9FF)"/>
<ellipse id="Ellipse 286" cx="398.566" cy="398.639" rx="177.567" ry="398.139" stroke="var(--stroke-0, #CDB9FF)"/>
<ellipse id="Ellipse 287" cx="398.563" cy="398.64" rx="138.541" ry="398.139" stroke="var(--stroke-0, #CDB9FF)"/>
<ellipse id="Ellipse 288" cx="398.559" cy="398.639" rx="93.6618" ry="398.139" stroke="var(--stroke-0, #CDB9FF)"/>
<ellipse id="Ellipse 289" cx="398.557" cy="398.643" rx="37.0745" ry="398.139" stroke="var(--stroke-0, #CDB9FF)"/>
</g>
</svg>
