<svg width="1206" height="287" viewBox="0 0 1206 287" fill="none" xmlns="http://www.w3.org/2000/svg">
<path d="M128.007 188.502C128.007 171.934 114.576 158.502 98.0073 158.502C81.4388 158.502 68.0073 171.934 68.0073 188.502C68.0073 205.071 81.4388 218.502 98.0073 218.502V278.502C48.3017 278.502 8.00732 238.208 8.00732 188.502C8.00732 138.797 48.3017 98.5024 98.0073 98.5024C147.713 98.5024 188.007 138.797 188.007 188.502C188.007 238.208 147.713 278.502 98.0073 278.502V218.502C114.576 218.502 128.007 205.071 128.007 188.502Z" fill="black"/>
<path d="M1112.01 188.502C1112.01 171.934 1098.58 158.502 1082.01 158.502C1065.44 158.502 1052.01 171.934 1052.01 188.502C1052.01 205.071 1065.44 218.502 1082.01 218.502V278.502C1032.3 278.502 992.007 238.208 992.007 188.502C992.007 138.797 1032.3 98.5024 1082.01 98.5024C1131.71 98.5024 1172.01 138.797 1172.01 188.502C1172.01 238.208 1131.71 278.502 1082.01 278.502V218.502C1098.58 218.502 1112.01 205.071 1112.01 188.502Z" fill="black"/>
<path d="M298.007 158.502C281.439 158.502 268.007 171.934 268.007 188.502H328.007C328.007 171.934 314.576 158.502 298.007 158.502Z" fill="#757474"/>
<path d="M682.007 158.502C665.438 158.502 652.007 171.934 652.007 188.502H712.007C712.007 171.934 698.575 158.502 682.007 158.502Z" fill="#757474"/>
<path d="M298.007 158.503C281.698 158.503 268.428 171.518 268.017 187.728L268.007 188.503C268.007 205.071 281.439 218.503 298.007 218.503C309.11 218.503 318.803 212.47 323.991 203.505L375.95 233.503C365.032 252.412 347.613 266.708 326.937 273.726C306.261 280.745 283.738 280.007 263.566 271.651C243.393 263.295 226.947 247.891 217.289 228.308C207.632 208.726 205.423 186.299 211.075 165.209C216.726 144.118 229.851 125.801 248.006 113.671C266.161 101.54 288.107 96.4223 309.755 99.2723C331.403 102.122 351.277 112.746 365.673 129.162C380.07 145.578 388.007 166.668 388.007 188.503H328.007C328.007 171.934 314.576 158.503 298.007 158.503Z" fill="black"/>
<path d="M682.007 158.503C665.697 158.503 652.427 171.518 652.016 187.728L652.007 188.503C652.007 205.071 665.438 218.503 682.007 218.503C693.11 218.503 702.802 212.47 707.99 203.505L759.949 233.503C749.032 252.412 731.612 266.708 710.936 273.726C690.26 280.745 667.738 280.007 647.565 271.651C627.393 263.295 610.946 247.891 601.289 228.308C591.632 208.726 589.423 186.299 595.074 165.209C600.725 144.118 613.851 125.801 632.006 113.671C650.161 101.54 672.107 96.4223 693.755 99.2723C715.402 102.122 735.276 112.746 749.673 129.162C764.069 145.578 772.007 166.668 772.007 188.503H712.007C712.007 171.934 698.575 158.503 682.007 158.503Z" fill="black"/>
<path d="M158.007 8.50244C174.576 8.50244 188.007 21.9339 188.007 38.5024V188.502C188.007 149.316 162.963 115.979 128.007 103.624V38.5024C128.007 21.9339 141.439 8.50244 158.007 8.50244Z" fill="#757474"/>
<path d="M128.007 103.624C162.69 115.882 187.615 148.796 188.002 187.585L188.007 188.502C188.007 205.071 174.576 218.502 158.007 218.502C141.439 218.502 128.007 205.071 128.007 188.502V103.624Z" fill="#434343"/>
<path d="M442.22 98.2892L580.22 236.289L537.794 278.715L399.794 140.716L442.22 98.2892Z" fill="black"/>
<path d="M469.294 166.789L399.794 236.289L442.221 278.716L511.721 209.216L469.294 166.789Z" fill="black"/>
<circle cx="552.007" cy="126.502" r="30" fill="#434343"/>
<path d="M912.007 188.502C912.007 171.934 898.576 158.502 882.007 158.502C865.439 158.502 852.007 171.934 852.007 188.502V278.502H792.007V188.502C792.007 138.797 832.302 98.5024 882.007 98.5024C931.713 98.5024 972.007 138.797 972.007 188.502V278.502H912.007V188.502Z" fill="black"/>
<path d="M820.007 96.5024C829.286 96.5024 837.58 100.716 843.083 107.333C824.647 116.189 809.694 131.142 800.837 149.578C794.221 144.075 790.007 135.781 790.007 126.502C790.007 109.934 803.439 96.5024 820.007 96.5024Z" fill="#757474"/>
<path d="M843.083 107.332C847.406 112.53 850.007 119.212 850.007 126.502C850.007 143.071 836.576 156.502 820.007 156.502C812.717 156.502 806.035 153.901 800.836 149.578C809.693 131.142 824.647 116.188 843.083 107.332Z" fill="#434343"/>
<path d="M1174.27 194.815C1176.69 205.27 1181.07 215.172 1187.18 223.997L1192.67 231.926C1202.1 245.549 1198.71 264.238 1185.08 273.668C1171.46 283.099 1152.77 279.701 1143.34 266.079L1138.27 258.751C1158.84 242.257 1172.01 216.918 1172.01 188.502C1172.01 187.239 1171.98 185.982 1171.93 184.731L1174.27 194.815Z" fill="#757474"/>
<path d="M1112.01 188.502C1112.01 188.579 1112 188.655 1112 188.731C1112 188.57 1112 188.41 1112 188.25C1112 188.334 1112.01 188.418 1112.01 188.502Z" fill="#757474"/>
<path d="M1112 188.727L1112 188.73C1112 188.654 1112 188.578 1112 188.502C1112 188.43 1112 188.359 1112 188.288C1112.09 174.719 1121.43 162.477 1135.23 159.278C1151.37 155.536 1167.49 165.586 1171.23 181.726L1171.93 184.728V184.73C1171.98 185.981 1172 187.238 1172 188.502C1172 216.918 1158.83 242.257 1138.27 258.751L1137.85 258.15C1127.43 243.097 1119.95 226.205 1115.82 208.369L1112.78 195.279C1112.27 193.085 1112.02 190.89 1112 188.727Z" fill="#434343"/>
</svg>
