<svg width="168" height="40" viewBox="0 0 168 40" fill="none" xmlns="http://www.w3.org/2000/svg">
<path d="M17.938 26.4153C17.938 24.0936 16.0558 22.2114 13.734 22.2114C11.4122 22.2114 9.53003 24.0936 9.53003 26.4153C9.53003 28.7371 11.4122 30.6193 13.734 30.6193V39.0273C6.76863 39.0273 1.12207 33.3807 1.12207 26.4153C1.12207 19.45 6.76863 13.8034 13.734 13.8034C20.6994 13.8034 26.346 19.45 26.346 26.4153C26.346 33.3807 20.6994 39.0273 13.734 39.0273V30.6193C16.0558 30.6193 17.938 28.7371 17.938 26.4153Z" fill="#342854"/>
<path d="M155.829 26.4153C155.829 24.0936 153.946 22.2114 151.625 22.2114C149.303 22.2114 147.421 24.0936 147.421 26.4153C147.421 28.7371 149.303 30.6193 151.625 30.6193V39.0273C144.659 39.0273 139.013 33.3807 139.013 26.4153C139.013 19.45 144.659 13.8034 151.625 13.8034C158.59 13.8034 164.237 19.45 164.237 26.4153C164.237 33.3807 158.59 39.0273 151.625 39.0273V30.6193C153.946 30.6193 155.829 28.7371 155.829 26.4153Z" fill="#342854"/>
<path d="M41.7606 22.2114C39.4388 22.2114 37.5566 24.0936 37.5566 26.4154H45.9646C45.9646 24.0936 44.0824 22.2114 41.7606 22.2114Z" fill="#855CED"/>
<path d="M95.5714 22.2114C93.2496 22.2114 91.3674 24.0936 91.3674 26.4154H99.7754C99.7754 24.0936 97.8932 22.2114 95.5714 22.2114Z" fill="#855CED"/>
<path d="M41.7605 22.2114C39.475 22.2114 37.6155 24.0352 37.5579 26.3069L37.5566 26.4154C37.5566 28.7372 39.4388 30.6194 41.7605 30.6194C43.3164 30.6194 44.6747 29.774 45.4017 28.5177L52.6828 32.7214C51.1529 35.3712 48.7119 37.3745 45.8145 38.358C42.9172 39.3415 39.761 39.2381 36.9342 38.0672C34.1074 36.8963 31.8026 34.7377 30.4493 31.9935C29.096 29.2493 28.7865 26.1066 29.5784 23.1512C30.3704 20.1957 32.2097 17.6289 34.7538 15.929C37.2979 14.2291 40.3732 13.5119 43.4068 13.9113C46.4404 14.3107 49.2253 15.7994 51.2428 18.0998C53.2602 20.4002 54.3725 23.3557 54.3725 26.4154H45.9645C45.9645 24.0936 44.0823 22.2114 41.7605 22.2114Z" fill="#342854"/>
<path d="M95.5714 22.2114C93.2859 22.2114 91.4264 24.0352 91.3688 26.3069L91.3675 26.4154C91.3675 28.7372 93.2497 30.6194 95.5714 30.6194C97.1273 30.6194 98.4856 29.774 99.2126 28.5177L106.494 32.7214C104.964 35.3712 102.523 37.3745 99.6254 38.358C96.7281 39.3415 93.5719 39.2381 90.7451 38.0672C87.9183 36.8963 85.6135 34.7377 84.2602 31.9935C82.907 29.2493 82.5974 26.1066 83.3893 23.1512C84.1813 20.1957 86.0206 17.6289 88.5647 15.929C91.1088 14.2291 94.1842 13.5119 97.2177 13.9113C100.251 14.3107 103.036 15.7994 105.054 18.0998C107.071 20.4002 108.183 23.3557 108.183 26.4154H99.7754C99.7754 24.0936 97.8932 22.2114 95.5714 22.2114Z" fill="#342854"/>
<path d="M22.142 1.19147C24.4638 1.19147 26.3459 3.07365 26.3459 5.39545V26.4153C26.3459 20.924 22.8364 16.2524 17.938 14.521V5.39545C17.938 3.07365 19.8202 1.19147 22.142 1.19147Z" fill="#A789F2"/>
<path d="M17.938 14.521C22.7982 16.2389 26.291 20.8512 26.3453 26.2868L26.3459 26.4154C26.3459 28.7371 24.4638 30.6193 22.142 30.6193C19.8202 30.6193 17.938 28.7371 17.938 26.4154V14.521Z" fill="#855CED"/>
<path d="M61.9695 13.7735L81.3078 33.1118L75.3624 39.0571L56.0242 19.7188L61.9695 13.7735Z" fill="#342854"/>
<path d="M65.7634 23.3726L56.0242 33.1119L61.9695 39.0572L71.7087 29.3179L65.7634 23.3726Z" fill="#342854"/>
<circle cx="77.3542" cy="17.7271" r="4.20398" fill="#855CED"/>
<path d="M127.802 26.4153C127.802 24.0936 125.92 22.2114 123.598 22.2114C121.276 22.2114 119.394 24.0936 119.394 26.4153V39.0273H110.986V26.4153C110.986 19.45 116.633 13.8034 123.598 13.8034C130.563 13.8034 136.21 19.45 136.21 26.4153V39.0273H127.802V26.4153Z" fill="#342854"/>
<path d="M114.91 13.5231C116.21 13.5231 117.372 14.1136 118.143 15.0408C115.56 16.2819 113.465 18.3773 112.223 20.9607C111.296 20.1896 110.706 19.0274 110.706 17.7271C110.706 15.4053 112.588 13.5231 114.91 13.5231Z" fill="#FF977B"/>
<path d="M118.143 15.0407C118.749 15.7691 119.114 16.7055 119.114 17.7271C119.114 20.0489 117.232 21.9311 114.91 21.9311C113.888 21.9311 112.952 21.5666 112.223 20.9607C113.465 18.3773 115.56 16.2818 118.143 15.0407Z" fill="#FF7049"/>
<path d="M164.553 27.2999C164.893 28.7651 165.507 30.1526 166.363 31.3892L167.132 32.5004C168.454 34.4094 167.978 37.0283 166.069 38.3499C164.16 39.6714 161.541 39.1952 160.219 37.2863L159.509 36.2595C162.391 33.9482 164.236 30.3974 164.236 26.4153C164.236 26.2383 164.233 26.0621 164.225 25.8868L164.553 27.2999Z" fill="#A789F2"/>
<path d="M155.829 26.4153C155.829 26.426 155.828 26.4367 155.828 26.4474C155.828 26.4249 155.828 26.4024 155.828 26.3799C155.828 26.3917 155.829 26.4035 155.829 26.4153Z" fill="#A789F2"/>
<path d="M155.828 26.4469L155.828 26.4473C155.828 26.4366 155.828 26.4259 155.828 26.4152C155.828 26.4052 155.828 26.3953 155.828 26.3853C155.84 24.4838 157.149 22.7684 159.083 22.3201C161.344 21.7956 163.603 23.204 164.128 25.4658L164.225 25.8865V25.8867C164.232 26.062 164.236 26.2382 164.236 26.4152C164.236 30.3973 162.39 33.9481 159.508 36.2594L159.45 36.1753C157.99 34.0658 156.942 31.6987 156.362 29.1993L155.937 27.365C155.866 27.0575 155.83 26.7499 155.828 26.4469Z" fill="#855CED"/>
</svg>
