<svg width="148" height="96" viewBox="0 0 148 96" fill="none" xmlns="http://www.w3.org/2000/svg">
<mask id="mask0_45_247" style="mask-type:luminance" maskUnits="userSpaceOnUse" x="5" y="16" width="139" height="62">
<path d="M144 16.8164H5V77.4491H144V16.8164Z" fill="white"/>
</mask>
<g mask="url(#mask0_45_247)">
<path d="M69.8762 68.4L70.1299 69.2093H68.7969L68.6701 68.7491C68.321 67.5966 68.0038 66.7132 67.7186 66.0993C67.3793 65.3909 66.9514 64.8404 66.4333 64.4492H63.2437V69.2093H61.9746V63.8144L61.9904 59.0705V58.4362H62.6251L66.6393 58.4204C67.4644 58.4204 68.1835 58.6741 68.7969 59.182C69.5377 59.7845 69.9077 60.5414 69.9077 61.4508C69.9077 61.7892 69.8447 62.1226 69.7174 62.45C69.4211 63.2435 68.8553 63.8204 68.0196 64.1797C68.633 64.8988 69.2521 66.3054 69.8762 68.4ZM64.6239 63.1801H66.6551C67.0463 63.1801 67.4116 63.0851 67.7501 62.8944C68.3418 62.556 68.6386 62.0749 68.6386 61.4508C68.6386 61.0914 68.5219 60.7581 68.2895 60.4511C67.8978 59.9432 67.3478 59.6895 66.6393 59.6895H63.2437V63.1958H64.6405L64.6239 63.1801ZM83.5524 58.4204V59.6895H77.2056V63.1801H81.8388V64.4492H77.2056V67.9398H83.5524V69.2093H75.9369V58.4204H83.5524ZM94.6903 61.435C94.6903 61.0646 94.5579 60.7313 94.2936 60.4354C93.8389 59.9381 93.2199 59.6895 92.4374 59.6895C91.9823 59.6895 91.554 59.7955 91.1525 60.0071C90.5071 60.3456 90.184 60.8215 90.184 61.435C90.184 61.5406 90.2104 61.6517 90.264 61.7679C90.4432 62.1166 91.0414 62.4874 92.0568 62.8787C93.3152 63.3759 94.0713 63.6824 94.3255 63.7987C95.6052 64.4445 96.2455 65.2428 96.2455 66.1947C96.2345 66.8716 95.9488 67.4957 95.3885 68.0666C94.6163 68.8283 93.6328 69.2093 92.4374 69.2093C91.4007 69.2093 90.5071 68.9185 89.7557 68.3365C89.0047 67.7333 88.6296 67.0198 88.6296 66.1947H89.8987C89.909 66.5651 90.0677 66.9031 90.3747 67.2101C90.8928 67.6967 91.5808 67.9398 92.4374 67.9398C92.9768 67.9398 93.4791 67.8235 93.9445 67.5907C94.632 67.2416 94.976 66.7767 94.976 66.1947C94.976 66.078 94.9445 65.9622 94.8806 65.8456C94.701 65.4863 94.0977 65.1052 93.0721 64.7029C91.8239 64.2167 91.078 63.9153 90.8349 63.7987C89.5547 63.1643 88.9153 62.3767 88.9153 61.435C88.9153 60.7475 89.169 60.1233 89.6765 59.5626C90.3747 58.801 91.2951 58.4204 92.4374 58.4204C93.3467 58.4204 94.1403 58.6848 94.8172 59.2135C95.5788 59.8164 95.9599 60.5572 95.9599 61.435H94.6903ZM102.798 59.9113C103.718 58.9172 104.813 58.4204 106.082 58.4204C107.351 58.4311 108.451 58.933 109.382 59.9275C110.355 60.9854 110.842 62.2809 110.842 63.8144C110.842 65.3488 110.35 66.6498 109.367 67.7175C108.446 68.712 107.351 69.2093 106.082 69.2093C104.813 69.1987 103.712 68.6959 102.782 67.7018C101.809 66.6443 101.322 65.3488 101.322 63.8144C101.322 62.2809 101.814 60.9799 102.798 59.9113ZM103.512 66.6072C104.199 67.4957 105.056 67.9398 106.082 67.9398C106.971 67.9291 107.748 67.5749 108.415 66.8767C109.186 66.0521 109.573 65.0312 109.573 63.8144C109.573 62.7569 109.266 61.8258 108.652 61.0225C107.965 60.134 107.108 59.6895 106.082 59.6895C105.194 59.7002 104.416 60.0544 103.75 60.7526C102.978 61.5776 102.591 62.5985 102.591 63.8144C102.591 64.8728 102.898 65.8034 103.512 66.6072ZM124.772 68.4L125.026 69.2093H123.693L123.566 68.7491C123.217 67.5966 122.9 66.7132 122.614 66.0993C122.276 65.3909 121.847 64.8404 121.329 64.4492H118.14V69.2093H116.871V63.8144L116.887 59.0705V58.4362H117.521L121.536 58.4204C122.361 58.4204 123.08 58.6741 123.693 59.182C124.433 59.7845 124.804 60.5414 124.804 61.4508C124.804 61.7892 124.74 62.1226 124.613 62.45C124.317 63.2435 123.752 63.8204 122.916 64.1797C123.529 64.8988 124.148 66.3054 124.772 68.4ZM119.52 63.1801H121.551C121.943 63.1801 122.308 63.0851 122.646 62.8944C123.238 62.556 123.535 62.0749 123.535 61.4508C123.535 61.0914 123.418 60.7581 123.186 60.4511C122.794 59.9432 122.244 59.6895 121.536 59.6895H118.14V63.1958H119.536L119.52 63.1801ZM137.179 58.4204H137.814V59.6895H134.339V69.2093H133.07V59.6895H129.563V58.4204H137.179Z" fill="#463B63"/>
</g>
<path d="M9.68006 58.4204L9.50637 58.801L5.38103 68.3208L5 69.2093H6.38065L6.5552 68.8287L10.093 60.6572L13.6313 68.8287L13.8063 69.2093H15.186L14.8054 68.3208L10.6801 58.801L10.5056 58.4204H9.68006ZM20.2471 58.4204V69.2093H26.5939V67.9402H21.5167V58.4204H20.2471ZM39.2863 58.4204H32.3056V69.2093H39.921V67.9402H33.5747V64.4492H38.2075V63.1801H33.5747V59.6899H39.921V58.4204H39.2863ZM49.0283 58.4204L48.8537 58.801L44.7288 68.3208L44.3478 69.2093H45.728L45.9021 68.8287L49.4404 60.6572L52.9791 68.8287L53.1532 69.2093H54.5338L54.1528 68.3208L50.0275 58.801L49.8533 58.4204H49.0283Z" fill="#463B63"/>
<path d="M53.1011 25.4234L50.7703 40.883L67.4887 38.4547L68.0251 25.1616L53.1011 25.4234ZM73.3519 49.2333L51.9002 41.5029L67.8574 39.192L73.9982 40.6557L73.3519 49.2333Z" fill="#463B63"/>
<path d="M74.1262 49.2397L90.41 44.5043L74.7601 40.8349L74.1262 49.2397ZM76.5337 17.5078L76.2178 21.6672L90.109 16.8164L76.5337 17.5078Z" fill="#463B63"/>
<path d="M55.2625 24.6109L68.366 24.381L75.4221 21.9335L75.7435 17.6941L55.2625 24.6109ZM76.1539 22.5087L74.8235 40.0552L91.5611 43.9787L92.3777 16.8447L76.1539 22.5087Z" fill="#463B63"/>
<mask id="mask1_45_247" style="mask-type:luminance" maskUnits="userSpaceOnUse" x="5" y="16" width="139" height="62">
<path d="M144 16.8164H5V77.4491H144V16.8164Z" fill="white"/>
</mask>
<g mask="url(#mask1_45_247)">
<path d="M142.566 53.3041C142.53 53.3143 142.138 53.4275 142.131 53.4297C142.119 53.4327 142.089 53.439 142.073 53.4565C142.058 53.4748 142.052 53.4982 142.047 53.528C142.025 53.6953 142.049 54.4361 142.081 54.7878C142.082 54.7941 142.09 54.9219 142.108 54.9623C142.128 54.9985 142.151 55.03 142.177 55.0619C142.223 55.1245 142.257 55.2067 142.257 55.2854C142.257 55.5026 142.087 55.6729 141.875 55.6729C141.664 55.6729 141.494 55.5026 141.494 55.2918C141.494 55.2063 141.526 55.1258 141.574 55.0619C141.6 55.03 141.623 54.9985 141.643 54.9623C141.666 54.9116 141.668 54.8414 141.67 54.7878C141.683 54.445 141.703 54.0155 141.711 53.7864C141.712 53.5974 141.685 53.3892 141.716 53.2028C141.736 53.012 141.943 52.903 142.111 52.9831C142.263 53.0423 142.398 53.1363 142.54 53.2151L142.56 53.2262C142.627 53.2662 142.587 53.2951 142.573 53.3015L142.566 53.3041ZM141.876 58.1651C141.876 58.1651 142.038 58.3733 142.117 58.478C142.119 58.4806 142.126 58.4874 142.136 58.4874H142.741C142.756 58.4865 142.766 58.475 142.766 58.4627V58.4073C142.766 58.3988 142.761 58.3899 142.752 58.3848L142.119 58.0638C142.119 58.0638 142.112 58.0604 142.11 58.0587C142.107 58.0574 142.104 58.0548 142.102 58.0531C142.078 58.0335 142.057 58.0063 142.057 57.9748C142.057 57.9735 142.058 57.9629 142.061 57.945C142.061 57.945 142.238 56.9956 142.312 56.6107C142.317 56.5809 142.298 56.5635 142.274 56.5677C142.187 56.5958 142.013 56.6278 141.877 56.6278C141.732 56.6278 141.565 56.5958 141.478 56.5677C141.454 56.5635 141.435 56.5809 141.44 56.6107C141.514 56.9956 141.691 57.945 141.691 57.945C141.694 57.9629 141.695 57.9735 141.695 57.9748C141.695 58.0063 141.674 58.034 141.651 58.0531C141.648 58.0548 141.645 58.0574 141.642 58.0587C141.639 58.0608 141.633 58.0642 141.633 58.0642L141 58.3848C140.991 58.3899 140.986 58.3988 140.986 58.4073V58.4627C140.986 58.475 140.996 58.4865 141.01 58.4874H141.616C141.626 58.4874 141.633 58.4806 141.634 58.478C141.715 58.3733 141.876 58.1651 141.876 58.1651ZM141.876 55.9074C141.537 55.9074 141.26 55.6316 141.26 55.2927C141.26 55.1628 141.305 55.0313 141.388 54.9219L141.393 54.9159C141.407 54.8963 141.422 54.8755 141.43 54.8648C141.435 54.8589 141.443 54.8469 141.443 54.8469C141.443 54.8469 141.436 54.8256 141.435 54.8218C141.434 54.8201 141.434 54.8193 141.433 54.818C141.33 54.52 141.128 54.279 140.879 54.0781C140.276 54.3446 139.753 54.8614 139.753 55.5749C139.753 56.4502 140.533 57.0377 141.316 57.2097C141.28 57.0207 141.245 56.8381 141.21 56.6554L141.209 56.6499C141.195 56.5614 141.223 56.4724 141.284 56.4111C141.345 56.3506 141.432 56.3234 141.518 56.3383C141.532 56.3404 141.545 56.3438 141.557 56.3481C141.617 56.3676 141.767 56.3953 141.876 56.3953C141.986 56.3953 142.136 56.3676 142.195 56.3481C142.208 56.3438 142.221 56.3404 142.234 56.3383C142.32 56.3234 142.408 56.3506 142.468 56.4111C142.53 56.4724 142.558 56.5614 142.543 56.6499L142.542 56.6554C142.507 56.8381 142.472 57.0207 142.437 57.2097C143.22 57.0377 144 56.4507 144 55.5749C144 54.8614 143.477 54.3446 142.874 54.0781C142.625 54.279 142.423 54.5204 142.32 54.8188C142.319 54.8201 142.31 54.8478 142.31 54.8478C142.31 54.8478 142.317 54.8589 142.324 54.8682C142.334 54.8814 142.344 54.895 142.359 54.9159L142.364 54.9219C142.442 55.0257 142.486 55.1496 142.491 55.2735C142.491 55.2786 142.492 55.285 142.492 55.2927C142.492 55.6316 142.215 55.9074 141.876 55.9074Z" fill="#463B63"/>
<path d="M58.2531 77.3763C58.7449 77.3763 59.1191 77.332 59.3315 77.2477C59.75 77.0808 59.9007 76.7011 59.9007 76.2315C59.9007 75.6836 59.644 75.4158 59.1923 75.3098C59.5993 75.1757 59.7781 74.9024 59.7781 74.4102C59.7781 73.835 59.4878 73.5336 58.8624 73.4664C58.7172 73.4498 58.449 73.4332 58.2757 73.4332H57.3263C57.2088 73.4332 57.1812 73.5004 57.1812 73.5894V77.22C57.1812 77.3094 57.2033 77.3763 57.3374 77.3763H58.2531ZM57.8227 76.8015V75.6167H58.3706C58.6108 75.6167 58.784 75.6223 58.9181 75.678C59.114 75.7564 59.2481 75.902 59.2481 76.1757C59.2481 76.5163 59.1191 76.6564 58.9241 76.7347C58.8121 76.7794 58.5942 76.8015 58.2978 76.8015H57.8227ZM57.8227 75.0531V73.9968H58.2812C58.4767 73.9968 58.6665 74.0079 58.7785 74.0415C58.9684 74.1028 59.1365 74.1697 59.1365 74.5222C59.1365 74.7793 59.0131 74.9415 58.8398 75.0139C58.7449 75.0531 58.5882 75.0531 58.3481 75.0531H57.8227ZM62.264 76.2647H63.6272L63.9622 77.2085C64.0069 77.3371 64.0516 77.3873 64.1521 77.3873H64.5263C64.6272 77.3873 64.6604 77.3316 64.6604 77.2813C64.6604 77.2256 64.6438 77.1804 64.6212 77.1251L63.3198 73.5617C63.2806 73.4557 63.2304 73.4221 63.1354 73.4221H62.7501C62.6552 73.4221 62.5994 73.4664 62.5658 73.5617L61.2643 77.1251C61.2418 77.1864 61.2252 77.2311 61.2252 77.2813C61.2252 77.3316 61.2588 77.3873 61.3648 77.3873H61.739C61.8395 77.3873 61.8787 77.326 61.9174 77.2145L62.264 76.2647ZM62.4372 75.701C62.7501 74.841 62.8451 74.5452 62.9456 74.2433C63.046 74.5562 63.1465 74.841 63.4539 75.701H62.4372ZM67.0283 76.7905V74.019H67.4868C67.7997 74.019 68.0846 74.0471 68.2689 74.1305C68.6938 74.3208 68.8168 74.7116 68.8168 75.36C68.8168 76.0305 68.6938 76.4665 68.2412 76.6789C68.0569 76.7679 67.7772 76.7905 67.4928 76.7905H67.0283ZM67.3919 77.3763C67.6937 77.3763 68.1855 77.3486 68.4762 77.2426C69.2519 76.9522 69.4805 76.3043 69.4805 75.36C69.4805 74.3489 69.1685 73.7341 68.4928 73.5392C68.2468 73.4664 67.9172 73.4332 67.4536 73.4332H66.5153C66.4319 73.4332 66.3867 73.4889 66.3867 73.5839V77.2256C66.3867 77.326 66.437 77.3763 66.5153 77.3763H67.3919ZM76.8878 75.3766C76.8878 73.6567 76.3523 73.3604 75.2573 73.3604C74.2849 73.3604 73.5705 73.712 73.5705 75.3826C73.5705 77.025 74.1006 77.4491 75.2066 77.4491C76.3523 77.4491 76.8878 77.014 76.8878 75.3766ZM76.2237 75.3881C76.2237 76.6896 75.8495 76.8799 75.2181 76.8799C74.5697 76.8799 74.2287 76.6619 74.2287 75.3826C74.2287 74.1756 74.5863 73.9296 75.2292 73.9296C75.9499 73.9296 76.2237 74.142 76.2237 75.3881ZM79.5078 77.2371V75.7564H79.9101C80.005 75.7564 80.1 75.7564 80.1898 75.7504L81.011 77.2537C81.0553 77.3431 81.1004 77.3873 81.1954 77.3873H81.6024C81.6692 77.3873 81.7199 77.3371 81.7199 77.2813C81.7199 77.2145 81.6918 77.1587 81.6641 77.1081L80.8267 75.6448C81.3231 75.472 81.5189 75.0812 81.5189 74.5669C81.5189 74.0862 81.3793 73.729 80.9553 73.5617C80.7432 73.4779 80.3852 73.4332 79.8709 73.4332H79.0224C78.8883 73.4332 78.8658 73.5 78.8658 73.5894V77.2371C78.8658 77.3371 78.9164 77.3873 78.9999 77.3873H79.363C79.452 77.3873 79.5078 77.3316 79.5078 77.2371ZM79.5078 75.2097V74.0024H79.9267C80.223 74.0024 80.4359 74.0245 80.5529 74.0696C80.7432 74.142 80.8599 74.2595 80.8599 74.606C80.8599 74.8913 80.7432 75.0586 80.5474 75.1369C80.4073 75.1872 80.223 75.2097 79.9493 75.2097H79.5078ZM84.5855 77.3763C85.0776 77.3763 85.4518 77.332 85.6643 77.2477C86.0828 77.0808 86.2335 76.7011 86.2335 76.2315C86.2335 75.6836 85.9768 75.4158 85.5246 75.3098C85.9321 75.1757 86.1104 74.9024 86.1104 74.4102C86.1104 73.835 85.8205 73.5336 85.1947 73.4664C85.0499 73.4498 84.7813 73.4332 84.608 73.4332H83.6591C83.5416 73.4332 83.5139 73.5004 83.5139 73.5894V77.22C83.5139 77.3094 83.5356 77.3763 83.6697 77.3763H84.5855ZM84.1555 76.8015V75.6167H84.703C84.9431 75.6167 85.1168 75.6223 85.2509 75.678C85.4463 75.7564 85.5808 75.902 85.5808 76.1757C85.5808 76.5163 85.4518 76.6564 85.2564 76.7347C85.1449 76.7794 84.9265 76.8015 84.6306 76.8015H84.1555ZM84.1555 75.0531V73.9968H84.614C84.809 73.9968 84.9993 74.0079 85.1108 74.0415C85.3015 74.1028 85.4689 74.1697 85.4689 74.5222C85.4689 74.7793 85.3458 74.9415 85.1726 75.0139C85.0776 75.0531 84.9214 75.0531 84.6808 75.0531H84.1555Z" fill="#463B63"/>
</g>
</svg>
