<svg preserveAspectRatio="none" width="100%" height="100%" overflow="visible" style="display: block;" viewBox="0 0 148 96" fill="none" xmlns="http://www.w3.org/2000/svg">
<g id="ALEASchool_01_Wortbildmarke_RGB 1">
<g id="Group">
<path id="Vector" d="M75.8631 61.231C75.4017 62.0664 74.6344 62.7175 73.5821 63.1657C72.9831 63.4196 72.377 63.5486 71.7835 63.5486C70.3643 63.5486 69.2078 62.926 68.2501 61.6466C67.3994 60.4878 66.9671 59.1332 66.9671 57.6184C66.9671 55.8355 67.4953 54.386 68.5768 53.1903C69.5081 52.1946 70.5589 51.7038 71.7835 51.6882C73.5085 51.6882 74.298 52.1492 74.9888 52.9407C75.6949 53.7477 76.0007 54.4101 76.0007 54.4101L78.6362 53.0655L78.4082 52.6116C77.7813 51.3663 75.7144 48.6997 71.7849 48.6997C69.6971 48.6997 67.9054 49.5366 66.4264 51.1876C64.8418 52.9265 64.0384 55.0909 64.0384 57.6198C64.0384 60.1488 64.8335 62.2877 66.4014 64.0266C67.8984 65.6762 69.7082 66.5215 71.7849 66.5385C73.6433 66.5385 75.3669 65.8662 76.9098 64.5358C77.5464 63.9741 78.0552 63.3657 78.4207 62.7246L78.6723 62.2849L76.1092 60.7899L75.8645 61.2324L75.8631 61.231Z" fill="var(--fill-0, #463B63)"/>
<path id="Vector_2" d="M59.3777 57.1333C58.9816 56.9489 57.8404 56.4751 55.8819 55.6865C54.0081 54.9504 53.5244 54.4355 53.4132 54.2157C53.3618 54.1008 53.3368 53.9972 53.3368 53.9051C53.3368 53.1448 53.7343 52.5633 54.5516 52.125C55.0923 51.8342 55.6761 51.6881 56.2863 51.6881C57.3469 51.6881 58.1559 52.0144 58.755 52.6824C59.0789 53.0526 59.2359 53.4526 59.2359 53.9051V54.41H62.1647V53.9051C62.1647 52.3803 61.5141 51.0811 60.2284 50.0428C59.1094 49.1507 57.782 48.6982 56.2863 48.6982C54.4043 48.6982 52.8614 49.3535 51.6993 50.6456C50.8417 51.613 50.4066 52.708 50.4066 53.9051C50.4066 55.5745 51.4867 56.9673 53.6217 58.0481C54.0067 58.2367 55.1368 58.7034 57.0745 59.4736C58.9677 60.2296 59.4542 60.7614 59.5848 61.0267C59.6418 61.1345 59.671 61.2338 59.671 61.3302C59.671 62.038 59.2443 62.6025 58.3686 63.0564C57.7292 63.3826 57.0286 63.5471 56.2863 63.5471C55.0951 63.5471 54.1749 63.2195 53.4827 62.5557C53.1032 62.1685 52.9114 61.7628 52.9003 61.3146L52.8864 60.8238H49.9702V61.3288C49.9702 62.7699 50.6124 64.0265 51.8842 65.069C53.1158 66.042 54.5961 66.5356 56.2863 66.5356C58.2393 66.5356 59.8739 65.8874 61.15 64.6024C62.0952 63.6195 62.583 62.5216 62.6011 61.3288C62.6011 59.6452 61.5225 58.2353 59.3777 57.1333Z" fill="var(--fill-0, #463B63)"/>
<path id="Vector_3" d="M91.3244 48.6983V56.122H84.0672V48.6983H81.1371V66.5357H84.0672V59.1119H91.3244V66.5357H94.2546V48.6983H91.3244Z" fill="var(--fill-0, #463B63)"/>
<path id="Vector_4" d="M107.88 62.0451C106.949 63.0408 105.898 63.533 104.673 63.5472C103.254 63.5472 102.098 62.9316 101.137 61.665C100.271 60.5076 99.8334 59.146 99.8334 57.617C99.8334 55.8355 100.369 54.3859 101.467 53.1888C102.399 52.1932 103.45 51.7024 104.675 51.6868C106.094 51.6868 107.252 52.3024 108.211 53.5661C109.077 54.7249 109.516 56.088 109.516 57.6156C109.516 59.3956 108.98 60.8466 107.882 62.0437M110.078 51.2088C108.565 49.5607 106.747 48.7153 104.672 48.6983C102.598 48.6983 100.787 49.5351 99.2899 51.1861C97.7067 52.9421 96.9033 55.1051 96.9033 57.617C96.9033 60.1289 97.6984 62.2848 99.2677 64.0252C100.78 65.6733 102.598 66.5187 104.673 66.5357C106.747 66.5357 108.558 65.6988 110.058 64.0464C111.641 62.2919 112.445 60.1289 112.445 57.617C112.445 55.1051 111.65 52.9506 110.081 51.2088" fill="var(--fill-0, #463B63)"/>
<path id="Vector_5" d="M125.098 62.0451C124.167 63.0408 123.116 63.533 121.892 63.5472C120.472 63.5472 119.316 62.9316 118.354 61.665C117.49 60.5076 117.05 59.146 117.05 57.617C117.05 55.8355 117.585 54.3859 118.684 53.1888C119.616 52.1932 120.667 51.7024 121.892 51.6868C123.311 51.6868 124.469 52.3024 125.428 53.5661C126.294 54.7249 126.733 56.088 126.733 57.6156C126.733 59.3956 126.196 60.8466 125.098 62.0437M127.297 51.2088C125.785 49.5607 123.967 48.7153 121.892 48.6983C119.818 48.6983 118.007 49.5351 116.51 51.1861C114.926 52.9421 114.123 55.1051 114.123 57.617C114.123 60.1289 114.918 62.2848 116.487 64.0252C118 65.6733 119.818 66.5187 121.893 66.5357C123.967 66.5357 125.778 65.6988 127.278 64.0464C128.861 62.2919 129.665 60.1289 129.665 57.617C129.665 55.1051 128.869 52.9506 127.3 51.2088" fill="var(--fill-0, #463B63)"/>
<path id="Vector_6" d="M132.309 48.6983V66.5357H143V63.5472H135.24V48.6983H132.309Z" fill="var(--fill-0, #463B63)"/>
</g>
<g id="Group_2">
<path id="Vector_7" d="M57.4066 29.0818L49.8811 46.9192H53.0726L58.3546 34.3766L63.7825 46.9192H66.9517L59.2845 29.0818H57.4066Z" fill="var(--fill-0, #463B63)"/>
<path id="Vector_8" d="M68.5057 29.0818V46.9192H79.2685V43.9407H71.4386L71.4359 29.0818H68.5057Z" fill="var(--fill-0, #463B63)"/>
<path id="Vector_9" d="M81.1592 29.0818V46.9192H93.7901V43.9307H84.0893V39.4955H91.17V36.5056H84.0893V32.0718H93.7901V29.0818H81.1592Z" fill="var(--fill-0, #463B63)"/>
<path id="Vector_10" d="M102.957 29.0818L95.4316 46.9192H98.6231L103.905 34.3766L109.332 46.9192H112.501L104.834 29.0818H102.957Z" fill="var(--fill-0, #463B63)"/>
</g>
<path id="Vector_11" d="M40.2679 29.526C39.9982 29.2508 39.6271 29.082 39.217 29.082H5.48869C4.66581 29.082 4 29.7614 4 30.6011V65.0164C4 65.4291 4.16263 65.8036 4.42534 66.0773L14.2512 56.058C13.9871 55.7842 13.8231 55.4083 13.8231 54.9942V40.6247C13.8231 39.785 14.4889 39.1056 15.3118 39.1056H29.3953C29.804 39.1056 30.1737 39.2744 30.4434 39.5467L40.2679 29.526Z" fill="var(--fill-0, #463B63)"/>
<path id="Vector_12" d="M40.2678 29.5269L30.4419 39.5476C30.8506 39.9604 30.8826 40.4228 30.8826 40.6256V54.9951C30.8826 55.6078 30.435 56.5141 29.3939 56.5141H15.3104C14.7057 56.5141 14.4097 56.2049 14.2498 56.0588L4.42529 66.0782C4.69495 66.3604 5.07164 66.5363 5.48864 66.5363H39.217C40.0385 66.5363 40.7057 65.8569 40.7057 65.0172V30.602C40.7057 30.1821 40.5389 29.802 40.2692 29.5269" fill="var(--fill-0, #463B63)"/>
</g>
</svg>
