<svg width="148" height="96" viewBox="0 0 148 96" fill="none" xmlns="http://www.w3.org/2000/svg">
<path fill-rule="evenodd" clip-rule="evenodd" d="M40.9656 52.803C39.9643 52.803 39.1715 52.4427 38.5876 51.7219C38.0033 51.0012 37.7115 49.9865 37.7115 48.6776C37.7115 47.3523 38.0033 46.329 38.5876 45.6083C39.1715 44.8876 39.9643 44.5272 40.9656 44.5272C41.6666 44.5272 42.2548 44.6973 42.7304 45.0367C43.206 45.3765 43.5439 45.8444 43.7442 46.4409H47.5241C47.1401 44.9 46.3851 43.7032 45.2587 42.8498C44.1323 41.9966 42.7093 41.5698 40.9907 41.5698C39.6554 41.5698 38.4707 41.8642 37.4361 42.4521C36.4011 43.0404 35.5919 43.8686 35.008 44.9373C34.4236 46.006 34.1318 47.2528 34.1318 48.6776C34.1318 50.1027 34.4236 51.3491 35.008 52.4178C35.5919 53.4864 36.4011 54.3151 37.4361 54.903C38.4707 55.4913 39.6554 55.7853 40.9907 55.7853C42.6929 55.7853 44.1111 55.3464 45.2462 54.4681C46.3809 53.5901 47.1401 52.4053 47.5241 50.9142H43.7442C43.3101 52.1736 42.3839 52.803 40.9656 52.803Z" fill="#463B63"/>
<path fill-rule="evenodd" clip-rule="evenodd" d="M58.805 50.852C58.471 51.457 58.0205 51.9207 57.4533 52.2438C56.8858 52.5669 56.2768 52.7284 55.6259 52.7284C54.9915 52.7284 54.3951 52.563 53.8361 52.2314C53.2768 51.9001 52.8262 51.4236 52.4844 50.8024C52.1421 50.181 51.9712 49.4564 51.9712 48.6278C51.9712 47.7995 52.1421 47.0831 52.4844 46.4781C52.8262 45.8735 53.2729 45.4137 53.8236 45.0988C54.3743 44.7843 54.9751 44.6266 55.6259 44.6266C56.2768 44.6266 56.8858 44.7882 57.4533 45.1112C58.0205 45.4343 58.471 45.8984 58.805 46.503C59.1386 47.1079 59.3057 47.8325 59.3057 48.6775C59.3057 49.5224 59.1386 50.2474 58.805 50.852ZM59.3057 43.7568C58.8383 43.1273 58.2168 42.6054 57.4407 42.1911C56.6648 41.7772 55.7593 41.5698 54.7248 41.5698C53.5396 41.5698 52.4675 41.8599 51.5081 42.4397C50.5483 43.0198 49.7891 43.848 49.2302 44.9249C48.6708 46.002 48.3916 47.2361 48.3916 48.6278C48.3916 50.0362 48.6708 51.283 49.2302 52.3681C49.7891 53.4533 50.5483 54.294 51.5081 54.8905C52.4675 55.4869 53.5314 55.7852 54.6997 55.7852C55.7343 55.7852 56.6479 55.574 57.4407 55.1514C58.2332 54.729 58.8551 54.1947 59.3057 53.5485V55.5615H62.8353V41.7935H59.3057V43.7568Z" fill="#463B63"/>
<path fill-rule="evenodd" clip-rule="evenodd" d="M68.0919 43.9308V41.7935H64.5874V55.5616H68.0919V48.7024C68.0919 47.4268 68.3712 46.5321 68.9305 46.0184C69.4894 45.505 70.3198 45.2479 71.4212 45.2479H72.3474V41.5947C71.4126 41.5947 70.5826 41.8021 69.8567 42.216C69.1307 42.6303 68.5424 43.2019 68.0919 43.9308Z" fill="#463B63"/>
<path fill-rule="evenodd" clip-rule="evenodd" d="M83.6384 50.8147C83.2962 51.4278 82.8455 51.9001 82.2866 52.2313C81.7273 52.5629 81.1226 52.7283 80.4717 52.7283C79.8373 52.7283 79.2408 52.5668 78.6819 52.2437C78.1226 51.9206 77.672 51.4527 77.3302 50.8395C76.9879 50.2268 76.8171 49.506 76.8171 48.6774C76.8171 47.8492 76.9879 47.1285 77.3302 46.5153C77.672 45.9025 78.1226 45.4342 78.6819 45.1111C79.2408 44.7881 79.8373 44.6265 80.4717 44.6265C81.1226 44.6265 81.7273 44.7842 82.2866 45.0987C82.8455 45.4136 83.2962 45.8734 83.6384 46.478C83.9802 47.083 84.1515 47.7994 84.1515 48.6277C84.1515 49.4727 83.9802 50.2019 83.6384 50.8147ZM86.8926 44.9123C86.3332 43.8437 85.574 43.0197 84.6146 42.4396C83.6548 41.8598 82.5827 41.5697 81.398 41.5697C80.3798 41.5697 79.4744 41.7771 78.6819 42.191C77.8891 42.6053 77.2676 43.144 76.8171 43.8064V37.1709H73.3125V55.5614H76.8171V53.5981C77.284 54.2443 77.9059 54.7705 78.6819 55.1763C79.4579 55.582 80.3631 55.7851 81.398 55.7851C82.5827 55.7851 83.6548 55.4868 84.6146 54.8904C85.574 54.2939 86.3332 53.4533 86.8926 52.368C87.4515 51.283 87.7312 50.0361 87.7312 48.6277C87.7312 47.2197 87.4515 45.981 86.8926 44.9123Z" fill="#463B63"/>
<path fill-rule="evenodd" clip-rule="evenodd" d="M98.617 50.9142C98.283 51.5274 97.8367 51.9871 97.2777 52.2935C96.7184 52.6002 96.122 52.7532 95.4879 52.7532C94.4867 52.7532 93.6562 52.4014 92.9972 51.697C92.3378 50.9931 92.0085 49.9865 92.0085 48.6775C92.0085 47.3689 92.3464 46.3624 93.0223 45.658C93.6981 44.9539 94.5367 44.6018 95.538 44.6018C96.5394 44.6018 97.3861 44.9539 98.0788 45.658C98.7711 46.3624 99.1177 47.3689 99.1177 48.6775C99.1177 49.5559 98.9506 50.3014 98.617 50.9142ZM99.2178 42.4521C98.1328 41.8642 96.923 41.5698 95.5881 41.5698C94.2527 41.5698 93.043 41.8642 91.9584 42.4521C90.8734 43.0404 90.0184 43.8729 89.3926 44.9497C88.7668 46.0269 88.4539 47.2695 88.4539 48.6775C88.4539 50.0859 88.7582 51.3286 89.3676 52.4053C89.9765 53.4825 90.8151 54.3151 91.8833 54.9029C92.9511 55.4913 94.1526 55.7852 95.4879 55.7852C96.8397 55.7852 98.062 55.4913 99.1552 54.9029C100.248 54.3151 101.116 53.4825 101.759 52.4053C102.401 51.3286 102.722 50.0859 102.722 48.6775C102.722 47.2695 102.409 46.0269 101.784 44.9497C101.158 43.8729 100.302 43.0404 99.2178 42.4521Z" fill="#463B63"/>
<path fill-rule="evenodd" clip-rule="evenodd" d="M111.308 41.5947C110.44 41.5947 109.643 41.7648 108.917 42.1042C108.191 42.444 107.595 42.9119 107.128 43.5084V41.7935H103.623V55.5616H107.128V47.9569C107.128 46.8634 107.407 46.0226 107.966 45.4344C108.525 44.8464 109.289 44.5521 110.257 44.5521C111.208 44.5521 111.959 44.8464 112.51 45.4344C113.06 46.0226 113.336 46.8634 113.336 47.9569V55.5616H116.84V47.4847C116.84 45.6293 116.331 44.1836 115.313 43.148C114.295 42.1127 112.96 41.5947 111.308 41.5947Z" fill="#463B63"/>
<mask id="mask0_45_335" style="mask-type:luminance" maskUnits="userSpaceOnUse" x="4" y="32" width="140" height="31">
<path fill-rule="evenodd" clip-rule="evenodd" d="M4 62.6017H144V32.8672H4V62.6017Z" fill="white"/>
</mask>
<g mask="url(#mask0_45_335)">
<path fill-rule="evenodd" clip-rule="evenodd" d="M118.492 55.5615H121.997V41.7935H118.492V55.5615Z" fill="#463B63"/>
</g>
<mask id="mask1_45_335" style="mask-type:luminance" maskUnits="userSpaceOnUse" x="4" y="32" width="140" height="31">
<path fill-rule="evenodd" clip-rule="evenodd" d="M4 62.6017H144V32.8672H4V62.6017Z" fill="white"/>
</mask>
<g mask="url(#mask1_45_335)">
<path fill-rule="evenodd" clip-rule="evenodd" d="M120.27 36.0771C119.652 36.0771 119.139 36.2721 118.73 36.6612C118.321 37.0507 118.117 37.5353 118.117 38.115C118.117 38.6952 118.321 39.1797 118.73 39.5689C119.139 39.9583 119.652 40.1529 120.27 40.1529C120.887 40.1529 121.4 39.9583 121.809 39.5689C122.218 39.1797 122.423 38.6952 122.423 38.115C122.423 37.5353 122.218 37.0507 121.809 36.6612C121.4 36.2721 120.887 36.0771 120.27 36.0771Z" fill="#463B63"/>
</g>
<mask id="mask2_45_335" style="mask-type:luminance" maskUnits="userSpaceOnUse" x="4" y="32" width="140" height="31">
<path fill-rule="evenodd" clip-rule="evenodd" d="M4 62.6017H144V32.8672H4V62.6017Z" fill="white"/>
</mask>
<g mask="url(#mask2_45_335)">
<path fill-rule="evenodd" clip-rule="evenodd" d="M140.27 41.7935L136.64 51.4112L133.061 41.7935H130.132H129.131H127.704V41.2219C127.704 40.4433 127.871 39.9047 128.205 39.6065C128.538 39.3083 129.131 39.1677 129.982 39.184V36.2515C128.03 36.2017 126.569 36.5746 125.602 37.3698C124.633 38.165 124.15 39.4077 124.15 41.0976V41.7935H122.573V44.6514H124.15V55.5615H127.704V44.6514H130.314L134.688 55.2136L131.684 62.0728H135.414L144 41.7935H140.27Z" fill="#463B63"/>
</g>
<mask id="mask3_45_335" style="mask-type:luminance" maskUnits="userSpaceOnUse" x="4" y="32" width="140" height="31">
<path fill-rule="evenodd" clip-rule="evenodd" d="M4 62.6017H144V32.8672H4V62.6017Z" fill="white"/>
</mask>
<g mask="url(#mask3_45_335)">
<path fill-rule="evenodd" clip-rule="evenodd" d="M17.5053 48.7055L17.3857 52.9509L17.3642 53.7173L32.3773 44.9988L21.0718 47.365L21.0992 46.6055L21.1886 44.127L21.2184 43.3014L6.89759 43.2598L4 50.7393L17.5288 47.8749L17.5053 48.7055Z" fill="#463B63"/>
</g>
<mask id="mask4_45_335" style="mask-type:luminance" maskUnits="userSpaceOnUse" x="4" y="32" width="140" height="31">
<path fill-rule="evenodd" clip-rule="evenodd" d="M4 62.6017H144V32.8672H4V62.6017Z" fill="white"/>
</mask>
<g mask="url(#mask4_45_335)">
<path fill-rule="evenodd" clip-rule="evenodd" d="M22.6452 58.5093C17.3969 58.5093 13.0072 54.7916 12.0066 49.8696L7.97412 50.7234C9.37146 57.4937 15.4187 62.6018 22.6452 62.6018C25.3934 62.6018 27.9706 61.8622 30.1869 60.5742L27.0511 57.5806C25.7039 58.1771 24.213 58.5093 22.6452 58.5093Z" fill="#463B63"/>
</g>
<mask id="mask5_45_335" style="mask-type:luminance" maskUnits="userSpaceOnUse" x="4" y="32" width="140" height="31">
<path fill-rule="evenodd" clip-rule="evenodd" d="M4 62.6017H144V32.8672H4V62.6017Z" fill="white"/>
</mask>
<g mask="url(#mask5_45_335)">
<path fill-rule="evenodd" clip-rule="evenodd" d="M22.6453 36.9597C24.1166 36.9597 25.5202 37.2524 26.8008 37.7814L29.9718 34.7722C27.8046 33.56 25.3051 32.8672 22.6453 32.8672C16.2388 32.8672 10.7599 36.8823 8.62524 42.5107L13.1486 42.5239C15.0014 39.2087 18.5635 36.9597 22.6453 36.9597Z" fill="#463B63"/>
</g>
</svg>
