<svg width="148" height="96" viewBox="0 0 148 96" fill="none" xmlns="http://www.w3.org/2000/svg">
<g clip-path="url(#clip0_47_39)">
<path d="M37.708 41.3433C39.1562 41.3435 39.7966 46.237 39.7966 46.237C37.4853 46.7703 35.6367 46.242 35.6194 46.237C35.6194 46.237 36.2597 41.3433 37.708 41.3433Z" fill="#463B63"/>
<path d="M32.6867 56.2929C32.7337 55.8816 32.6081 55.4984 32.3026 55.1219L30.8609 53.3481L30.1469 53.9284L31.4706 55.5571C31.7011 55.84 31.7652 55.9969 31.7436 56.2287C31.7277 56.4113 31.6161 56.5993 31.4376 56.7439C31.26 56.8885 31.0535 56.959 30.8713 56.9373C30.6404 56.9111 30.4998 56.8162 30.2703 56.5324L28.9461 54.9045L28.2321 55.4848L29.6737 57.2591C29.981 57.6351 30.3299 57.8358 30.7421 57.8737C30.7904 57.8782 30.8388 57.8819 30.8867 57.8819C31.2857 57.8868 31.6563 57.7449 32.0156 57.4539C32.416 57.1271 32.6352 56.7471 32.6867 56.2929ZM36.3202 51.6154L34.0077 52.0854C33.9593 52.0935 33.9131 52.1112 33.8716 52.1374C33.8302 52.1637 33.7944 52.1979 33.7664 52.2382C33.7401 52.2796 33.7223 52.326 33.7143 52.3744C33.7062 52.4228 33.7079 52.4724 33.7194 52.5202L34.1804 54.7907C34.2554 55.1603 34.4212 55.4261 34.673 55.5815C34.8393 55.6841 35.039 55.7352 35.2686 55.7352C35.3861 55.7352 35.5108 55.7216 35.6437 55.6945L37.089 55.4012L36.915 54.5444L35.509 54.8295C35.2211 54.8883 35.1276 54.8562 35.0616 54.5331L35.0124 54.289L36.6393 53.9591L36.4671 53.1118L34.8402 53.4417L34.7168 52.8334L36.4947 52.4727L36.3202 51.6154ZM40.8174 52.8546L42.2034 53.2139L42.4226 52.3688L40.9972 51.9996C40.2163 51.7971 39.6812 52.0895 39.4914 52.8225L38.9098 55.0686C38.8959 55.1156 38.8915 55.1648 38.8969 55.2135C38.9023 55.2622 38.9175 55.3092 38.9414 55.352C38.967 55.3936 39.0008 55.4297 39.0406 55.4581C39.0804 55.4865 39.1255 55.5067 39.1733 55.5174L39.7025 55.6543L40.0776 54.2018L41.6819 54.6176L41.8979 53.782L40.2936 53.3662L40.356 53.1267C40.4387 52.8081 40.5336 52.7809 40.8174 52.8546ZM45.9734 54.3351L45.8329 54.2267C45.6132 54.0576 45.4397 54.1299 45.3127 54.2131L42.0209 56.3435L42.8813 56.8302L44.9796 55.4731L44.6181 56.6924L44.2995 56.4533L43.7495 56.8474L44.4328 57.3572L44.2737 57.9049L45.0275 58.595L46.1203 54.8345C46.1637 54.7021 46.1953 54.506 45.9734 54.3351ZM37.7528 56.3643C35.053 56.3643 32.6036 57.5727 31.1095 59.3592L31.5836 59.9445C32.9403 58.2556 35.2487 57.0946 37.7533 57.0946C40.2574 57.0946 42.5663 58.2561 43.923 59.9445L44.3966 59.3592C42.9026 57.5727 40.4531 56.3647 37.7533 56.3647L37.7528 56.3643ZM47.7387 53.5953C45.0009 51.2317 41.4546 49.9302 37.7533 49.9302C34.052 49.9302 30.5057 51.2317 27.7679 53.5953C27.5063 53.8214 27.253 54.057 27.0087 54.3017L27.4977 54.9059C27.7463 54.6539 28.0049 54.412 28.2727 54.1806C30.8704 51.9385 34.2373 50.7034 37.7533 50.7034C41.2693 50.7034 44.6362 51.9385 47.2334 54.1806C47.5013 54.4119 47.7599 54.6539 48.0085 54.9059L48.4979 54.3017C48.2535 54.057 48.0003 53.8214 47.7387 53.5953ZM55.4531 67.6964L56.479 66.76C57.6824 65.6614 58.3703 64.6585 58.3703 63.6037C58.3703 62.3004 57.3851 61.3635 55.8684 61.3635C54.3309 61.3635 53.3484 62.3108 53.3787 63.7868L54.631 63.8582C54.5903 63.0741 55.0332 62.5042 55.8074 62.5042C56.5504 62.5042 57.0366 62.9724 57.0158 63.7054C56.9955 64.4181 56.4613 65.1434 55.6036 65.9452C55.0536 66.4595 53.4203 67.8586 53.4203 67.8586V68.847H58.4331V67.6964H55.4531ZM44.3126 67.6964L45.3385 66.76C46.5419 65.6614 47.2293 64.6585 47.2293 63.6037C47.2293 62.3004 46.2446 61.3635 44.7275 61.3635C43.1904 61.3635 42.2075 62.3108 42.2378 63.7868L43.4905 63.8582C43.4499 63.0741 43.8927 62.5042 44.6664 62.5042C45.4099 62.5042 45.8957 62.9724 45.8754 63.7054C45.855 64.4181 45.3204 65.1434 44.4631 65.9452C43.9131 66.4595 42.2794 67.8586 42.2794 67.8586V68.847H47.2921V67.6964H44.3126ZM63.3401 65.9452V61.4656H61.5993L58.4869 66.1182V67.0854H61.1501L61.3263 65.9452H59.9326L62.0444 62.7112L62.0454 62.7062V62.708L62.0467 62.7062V65.9438H62.0458L62.0463 67.084L62.0467 68.8456H63.3397V67.084H64.3475V65.9438L63.3401 65.9452ZM39.7156 65.0973C39.7156 66.285 39.1086 67.1003 38.1465 67.2729L38.3996 68.9089C40.3889 68.6513 41.667 67.1916 41.667 65.0973C41.667 62.7939 40.1078 61.255 37.7533 61.255C35.3988 61.255 33.8387 62.7939 33.8387 65.0973C33.8387 67.1916 35.1177 68.6513 37.107 68.9085L37.3601 67.2725C36.3975 67.1007 35.7906 66.285 35.7906 65.0973C35.7906 63.775 36.5656 62.887 37.7528 62.887C38.9405 62.887 39.7156 63.775 39.7156 65.0969V65.0973ZM32.9267 63.8785C32.9267 62.4938 31.9596 61.4652 30.1369 61.4652H26.5735V68.8474H28.4061V63.1052H29.9639C30.5848 63.1052 31.0024 63.4107 31.0024 64.0213C31.0024 64.5916 30.6562 65.2189 29.9639 65.2189H29.1206L30.5134 68.8474H32.477L31.1298 66.4206C32.2597 66.1865 32.9267 65.0698 32.9267 63.8785ZM12.166 68.847H17.4807V67.2689H13.9986V65.9149H17.1756V64.428H13.9986V63.0537H17.4807V61.4656H12.166V68.847ZM51.703 65.1534C51.703 63.3466 51.2447 62.5164 50.3689 62.5164C49.4325 62.5164 49.0253 63.4713 49.0253 65.1222C49.0253 66.9498 49.4831 67.78 50.3689 67.78C51.2953 67.78 51.703 66.8251 51.703 65.1534ZM53.0569 65.1534C53.0569 67.6765 52.0288 68.9433 50.3689 68.9433C48.567 68.9433 47.6609 67.5206 47.6609 65.1222C47.6609 62.6199 48.6687 61.3635 50.3689 61.3635C52.1201 61.3635 53.0569 62.7654 53.0569 65.1534ZM18.9174 61.4656H20.7499V66.0572C20.7499 66.8716 21.2692 67.3095 22.033 67.3095C22.8781 67.3095 23.3155 66.8106 23.3155 66.0577V61.4656H25.1382V66.1286C25.1382 67.8392 24.0083 68.9487 22.033 68.9487C20.1493 68.9487 18.9174 67.9101 18.9174 66.1286V61.4656ZM42.5532 71.1902H41.9901L40.3966 75.2296H40.915L41.1495 74.6177L41.6485 73.2944H41.6507L42.2744 71.6584L43.1046 73.8367H41.8912L41.9576 74.2267H43.2492L43.6333 75.23H44.163L42.5532 71.1902ZM33.7049 73.5701C34.4962 73.5583 35.0142 73.1186 35.0142 72.3775C35.0142 71.6756 34.4963 71.1907 33.6719 71.1907H31.8719V75.23H32.3455V71.6254H33.6326C34.1677 71.6254 34.5184 71.9038 34.5184 72.4001C34.5184 72.8732 34.2066 73.1909 33.6326 73.1909H32.797L34.541 75.23H35.1371L33.7049 73.5701ZM35.6997 71.1907H36.2457L37.7831 73.6257L39.2984 71.1907H39.8389V75.23H39.3658V71.8871L37.8948 74.2385H37.6661L36.1729 71.8849V75.23H35.6997V71.1907ZM51.9235 71.1907L50.4525 73.3197V75.23H49.9793V73.3197L48.4861 71.1911H49.0375L50.2188 72.9681L51.3939 71.1907H51.9235ZM48.0179 71.1907V75.23H47.5055L45.2381 71.9206V75.23H44.7645V71.1907H45.2775L47.5448 74.4834V71.1907H48.0179ZM28.2732 71.1907H31.1032V71.6254H28.7473V73.0016H30.9369V73.4137H28.7473V74.7957H31.1041V75.23H28.2741L28.2732 71.1907ZM23.5822 73.2189C23.5822 71.982 24.3731 71.1356 25.5878 71.1356C26.5346 71.1356 27.2536 71.6535 27.4091 72.4281H26.9192C26.7574 71.9151 26.2282 71.5694 25.5933 71.5694C24.6682 71.5694 24.0779 72.2328 24.0779 73.2189C24.0779 74.2105 24.674 74.8626 25.6046 74.8626C26.4343 74.8626 27.0417 74.3384 27.0476 73.5809L27.0864 73.5583H25.2697V73.1688H27.5099C27.5207 73.2637 27.532 73.3527 27.532 73.458C27.532 74.5503 26.7633 75.2856 25.6041 75.2856C24.3731 75.2856 23.5822 74.4613 23.5822 73.2189Z" fill="#463B63"/>
<path fill-rule="evenodd" clip-rule="evenodd" d="M37.7079 21.4062C39.6211 21.4062 41.1808 22.9442 41.2179 24.8486C46.7609 25.4158 50.7276 27.3044 50.7276 29.609H50.2393C50.2392 27.6255 46.3537 25.8956 41.1928 25.3447C40.9813 27.0803 39.4997 28.4295 37.7079 28.4295C35.9163 28.4294 34.4348 27.0803 34.2233 25.3447C30.9622 25.6928 28.2102 26.5119 26.6261 27.5681C26.4111 27.512 26.184 27.4737 25.9485 27.4554C26.3274 27.1523 26.785 26.867 27.3119 26.6033C28.9994 25.7589 31.3976 25.1351 34.1982 24.8486C34.2353 22.9442 35.7949 21.4063 37.7079 21.4062ZM37.7079 25.162C36.7068 25.1617 35.7061 25.2066 34.7091 25.2968C34.8962 26.7856 36.1692 27.9413 37.7079 27.9414C39.2468 27.9414 40.5199 26.7856 40.707 25.2968C39.7423 25.209 38.7373 25.162 37.7079 25.162ZM37.7079 21.8944C36.0797 21.8944 34.7486 23.1885 34.6875 24.8021C35.654 24.7181 36.6647 24.6737 37.7079 24.6737C38.7511 24.6737 39.7621 24.7181 40.7286 24.8021C40.6675 23.1885 39.3362 21.8944 37.7079 21.8944Z" fill="#463B63"/>
<path d="M51.3254 44.9504L51.7883 44.1675H51.9611V45.6607H51.7946V44.4725H51.7905L51.4001 45.1296H51.2464L50.8539 44.4725H50.8497V45.6607H50.6833V44.1675H50.8561L51.3211 44.9504H51.3254ZM49.9626 45.6607H49.7919V44.3126H49.3333V44.1675H50.419V44.3126H49.9626V45.6607Z" fill="#463B63"/>
<path fill-rule="evenodd" clip-rule="evenodd" d="M37.7081 6.52588C43.2063 6.52594 47.4571 8.53816 50.3421 12.5064C52.8949 16.0178 54.2444 20.9824 54.2444 26.8632C54.2444 32.7412 52.8926 37.7056 50.3358 41.2198C48.4343 43.8333 45.9398 45.5945 42.8909 46.4951C42.806 46.5225 42.7018 46.5561 42.5763 46.5935C42.5143 46.6119 42.4438 46.5963 42.3683 46.581C42.2897 46.565 42.2054 46.5492 42.1192 46.5711C41.9499 46.6143 41.7726 46.8037 41.559 46.848C41.3113 46.8991 41.0331 46.9491 40.7234 46.9949C41.033 46.9491 41.3111 46.8989 41.5588 46.8477C41.4723 46.1853 41.3187 45.9892 41.0389 45.4696C40.2556 44.0144 39.7457 42.1102 39.666 41.3229C39.4082 38.7783 40.3333 36.654 41.7602 31.6142C42.8893 27.6266 44.3227 19.5111 38.8064 17.6087L39.4082 17.693C40.9285 17.8711 45.6336 19.1668 44.5726 26.2406C43.183 35.5049 39.699 38.104 40.4508 41.3579C40.6766 42.3354 41.193 44.0714 42.1203 45.4717C42.3735 45.854 42.5091 46.2338 42.5763 46.593C42.8079 46.524 42.9692 46.4685 43.0646 46.4397C43.401 46.3381 43.3851 45.9397 43.1416 45.4583C42.9255 45.0308 41.2864 42.3002 41.0188 40.6906C40.7195 38.8904 41.4725 37.7085 42.4328 35.7515L46.9838 44.0466C48.1215 43.2135 49.1324 42.1927 50.0118 40.9841C50.0682 40.9065 50.1239 40.8279 50.1792 40.7488L43.4771 33.4347C44.3475 31.3644 45.3505 28.6174 45.7176 26.0845L53.7974 25.0209C53.7272 23.6376 53.5769 22.3136 53.3489 21.0569L45.858 23.9698C45.843 23.4104 45.7791 22.878 45.6552 22.3848C45.5226 21.8573 45.34 21.3777 45.1171 20.9421C45.2066 20.1433 45.4323 17.1833 44.0366 15.9234C42.8044 14.8112 40.6813 15.0579 40.1306 15.6487V17.0027C41.0869 16.3639 42.643 16.1104 43.3926 17.3934C43.653 17.839 43.7686 18.6157 43.7305 19.1455C42.6134 18.146 41.1895 17.576 39.762 17.3098V14.0238C39.762 13.6135 39.4657 13.4737 39.0612 13.4052L38.8409 13.3678C38.948 13.4104 39.0682 13.515 39.0724 13.7714C39.0802 14.2376 39.0875 16.1512 39.0708 16.3676C39.0422 16.7393 38.9042 17.044 38.7651 17.1713C38.4067 17.138 38.0527 17.1222 37.7079 17.1222C37.3616 17.1222 37.006 17.1384 36.646 17.172C36.5067 17.0451 36.3687 16.7398 36.3401 16.3676C36.3234 16.1512 36.3306 14.2376 36.3384 13.7714C36.3427 13.5152 36.4626 13.4104 36.5697 13.3678L36.3499 13.4052C35.9453 13.4737 35.6491 13.6134 35.6491 14.0238V17.3105C34.223 17.5771 32.8008 18.1472 31.6848 19.146C31.6466 18.6161 31.7627 17.8392 32.0232 17.3934C32.7727 16.1104 34.3292 16.3638 35.2854 17.0027V15.6487C34.7349 15.0578 32.6114 14.8112 31.3792 15.9234C29.9834 17.1832 30.2087 20.1433 30.2982 20.9421C30.1733 21.1862 30.0614 21.4443 29.9637 21.7169L23.1729 16.9619C22.7014 18.2276 22.3317 19.5967 22.0668 21.0567L29.5577 23.9698C29.5579 23.9644 29.558 23.959 29.5582 23.9536C29.5224 25.2041 29.7329 26.5904 30.0721 27.9754L21.629 28.9002C21.7063 30.2687 21.8627 31.5784 22.096 32.8215L30.5678 29.7379C31.1739 31.6653 31.9365 33.4724 32.5188 34.7678C33.6809 37.3529 34.7432 38.608 34.397 40.6906C34.1294 42.3001 32.4906 45.0307 32.2744 45.4583C32.0309 45.9398 32.0148 46.3381 32.3511 46.4397C32.3912 46.4518 32.443 46.4687 32.5066 46.4892C29.4661 45.5871 26.9777 43.828 25.08 41.2198C22.5232 37.7056 21.1714 32.7412 21.1714 26.8632C21.1714 20.9823 22.5211 16.0178 25.0739 12.5064C27.9589 8.53804 32.21 6.52588 37.7081 6.52588ZM36.7364 13.3397C36.7351 13.3396 36.6566 13.3333 36.5697 13.3678L36.7364 13.3397ZM37.6684 11.4912C34.6697 11.4912 33.6377 12.6073 33.6218 12.6248C34.2638 12.4591 34.8854 12.4657 35.1981 12.8649C35.5037 13.2551 36.1357 13.198 36.3743 13.119C36.6372 13.0319 36.9247 12.898 37.6684 12.898C38.4122 12.8981 38.6995 13.0319 38.9623 13.119C39.2011 13.198 39.833 13.2551 40.1386 12.8649C40.4513 12.4656 41.073 12.459 41.7151 12.6248C41.7126 12.622 40.687 11.4913 37.6684 11.4912ZM41.6104 9.36601C41.6176 9.44802 41.6084 9.57814 41.5616 9.78416C41.4405 10.3168 41.2226 11.5018 41.0941 11.8899C41.7629 12.1618 42.325 12.511 42.72 12.9126C42.8397 12.5411 43.1462 11.4138 43.2687 10.8747C43.2898 10.7819 43.3061 10.7089 43.318 10.651C42.7873 9.93819 41.9677 9.5429 41.6104 9.36601ZM33.8164 9.36061C33.4669 9.5339 32.6425 9.92691 32.106 10.6402C32.1223 10.7185 32.1394 10.7967 32.1575 10.8747C32.2791 11.4102 32.5824 12.5261 32.7038 12.9051C33.1001 12.5049 33.6625 12.1571 34.3308 11.8864C34.2023 11.4947 33.9855 10.3153 33.8648 9.78416C33.8169 9.57346 33.8082 9.44223 33.8164 9.36061Z" fill="#463B63"/>
<path d="M36.6098 17.6087C31.0934 19.511 32.5268 27.6266 33.6558 31.6142C35.0828 36.654 36.008 38.7783 35.7503 41.3229C35.6706 42.1102 35.1606 44.0144 34.3773 45.4696C34.0975 45.9892 33.9437 46.1852 33.8573 46.8477C33.8564 46.8475 33.8555 46.8472 33.8547 46.847C33.7218 46.8187 33.6174 46.7256 33.5133 46.6599C33.4706 46.6329 33.4279 46.6103 33.3832 46.5991C33.3632 46.5941 33.3429 46.5907 33.3227 46.5883C33.3192 46.5878 33.3156 46.5873 33.3121 46.5869C33.3068 46.5863 33.3014 46.5859 33.2961 46.5855C33.2879 46.5848 33.2795 46.5844 33.2712 46.5841C33.2695 46.584 33.2676 46.5839 33.2659 46.5838C33.2586 46.5836 33.2511 46.5835 33.2438 46.5836C33.2417 46.5836 33.2395 46.5838 33.2374 46.5838C33.2218 46.584 33.206 46.5848 33.1905 46.5857C33.1801 46.5863 33.1696 46.5865 33.1593 46.5873C33.134 46.5894 33.1089 46.592 33.0844 46.5946C33.0123 46.6023 32.9443 46.6094 32.885 46.6021C32.8709 46.6003 32.857 46.598 32.844 46.5944L32.8454 46.5946C32.8435 46.5941 32.8415 46.594 32.8397 46.5935C32.9069 46.2342 33.0427 45.8541 33.2959 45.4717C34.2233 44.0714 34.7396 42.3354 34.9654 41.3579C35.7172 38.104 32.2332 35.5049 30.8436 26.2406C29.7826 19.1666 34.4878 17.871 36.0081 17.693L36.6098 17.6087Z" fill="#463B63"/>
</g>
<g clip-path="url(#clip1_47_39)">
<mask id="mask0_47_39" style="mask-type:luminance" maskUnits="userSpaceOnUse" x="-290" y="-10" width="446" height="611">
<path d="M-289.512 600.176H155.909V-9.85724H-289.512V600.176Z" fill="white"/>
</mask>
<g mask="url(#mask0_47_39)">
<path fill-rule="evenodd" clip-rule="evenodd" d="M110.551 32.7749C112.315 32.7747 113.736 31.3478 113.736 29.5327C113.736 28.8707 113.46 28.1845 113.068 27.6626C112.851 27.3941 112.657 27.1323 112.49 26.8276C112.341 26.491 112.276 25.4199 112.271 25.3687C112 22.4247 111.803 16.2305 111.987 14.8286C112.02 14.5822 112.077 14.3867 112.204 14.2358C112.332 14.0862 112.584 14.0356 112.684 14.0083C112.744 13.9924 116.017 13.0448 116.318 12.9575L116.379 12.938C116.495 12.8865 116.83 12.6399 116.271 12.3081L116.103 12.2134C114.914 11.5569 113.788 10.7692 112.514 10.2739C111.115 9.60303 109.386 10.5169 109.218 12.1128C108.958 13.6711 109.187 15.4121 109.177 16.9937C109.104 18.9094 108.943 22.5021 108.831 25.3687C108.813 25.8175 108.798 26.4027 108.61 26.8276C108.443 27.1323 108.25 27.3941 108.033 27.6626C107.632 28.1975 107.362 28.8695 107.362 29.5854C107.362 31.3467 108.787 32.7749 110.551 32.7749ZM114.893 45.6987C121.548 44.3562 128.296 39.4042 128.296 31.9526C128.296 25.9871 123.931 21.6642 118.887 19.4321C116.636 21.2541 114.844 23.4706 114.058 26.2593C114.132 26.3685 114.255 26.5224 114.339 26.6323C114.981 27.4849 115.336 28.469 115.368 29.437C115.371 29.4766 115.374 29.524 115.374 29.5786C115.374 32.2348 113.215 34.396 110.555 34.396C107.897 34.3959 105.738 32.2348 105.738 29.5786L105.744 29.437C105.775 28.469 106.117 27.4848 106.768 26.6343C106.778 26.6225 106.98 26.3661 107.052 26.2593C106.267 23.4707 104.476 21.2541 102.224 19.4321C97.1803 21.6641 92.8162 25.987 92.8162 31.9526C92.8162 39.4041 99.5626 44.3562 106.218 45.6987C105.91 44.0638 105.302 40.8774 105.302 40.8774C105.195 40.2327 105.389 39.6088 105.835 39.1655C106.268 38.7351 106.893 38.5411 107.505 38.647C107.606 38.664 107.698 38.6867 107.785 38.7153C108.294 38.8841 109.572 39.1284 110.557 39.1284C111.543 39.1284 112.819 38.8841 113.327 38.7153C113.413 38.6867 113.505 38.664 113.606 38.647C114.218 38.5411 114.843 38.7351 115.276 39.1655C115.722 39.6088 115.915 40.2327 115.808 40.8774C115.808 40.8774 115.201 44.0638 114.893 45.6987ZM108.377 56.3169C108.463 56.3169 108.524 56.2569 108.535 56.2397C109.198 55.3693 110.535 53.6463 110.553 53.6226C110.571 53.6453 111.909 55.369 112.573 56.2397C112.584 56.2571 112.645 56.3169 112.731 56.3169H117.788C117.909 56.3094 117.993 56.2118 117.993 56.1079V55.646C117.993 55.5743 117.949 55.4982 117.878 55.4585L112.584 52.772C112.584 52.772 112.529 52.7428 112.509 52.731C112.489 52.7187 112.457 52.6978 112.438 52.6821C112.243 52.5209 112.071 52.2923 112.071 52.0259C112.071 52.0135 112.078 51.9278 112.103 51.7798C112.103 51.7798 113.581 43.8359 114.198 40.6167C114.239 40.3711 114.08 40.2238 113.878 40.2583C113.15 40.4933 111.7 40.7642 110.559 40.7642C109.354 40.7641 107.95 40.4933 107.23 40.2583C107.029 40.2235 106.868 40.3709 106.909 40.6167C107.526 43.8359 109.004 51.7798 109.004 51.7798C109.03 51.9278 109.037 52.0135 109.037 52.0259C109.037 52.2922 108.866 52.5223 108.67 52.6821C108.648 52.6991 108.621 52.7173 108.598 52.731C108.57 52.748 108.522 52.7729 108.522 52.7729L103.229 55.4585C103.158 55.4982 103.115 55.5743 103.115 55.646V56.1079C103.115 56.2117 103.198 56.3094 103.319 56.3169H108.377Z" fill="#463B63"/>
<path d="M85.642 69.6351L86.565 68.7565C86.7037 68.6178 86.8369 68.6847 86.9762 68.8016C87.3711 69.1404 87.9819 69.6351 88.6323 69.6351C89.3606 69.6351 89.5218 69.29 89.5218 68.8904C89.5218 68.4456 88.8052 68.2065 88.4212 68.0733C86.7037 67.4837 85.8032 66.7055 85.8032 65.4601C85.8032 64.1429 86.9817 63.2649 88.6938 63.2649C89.6557 63.2649 90.7174 63.6981 91.2783 64.3041C91.4286 64.4769 91.4341 64.6211 91.2619 64.7933L90.4448 65.6664C90.2945 65.816 90.1442 65.7388 89.9946 65.6049C89.8108 65.4327 89.5273 65.2216 89.2164 65.1103C88.8386 64.977 87.8596 64.9545 87.8596 65.5659C87.8596 65.9554 88.3215 66.133 89.0996 66.383C90.6115 66.8893 91.6507 67.3949 91.6507 68.8788C91.6507 70.4412 90.3499 71.4585 88.605 71.4585C87.5044 71.4585 86.4092 70.8416 85.7035 70.1071C85.5696 69.9575 85.4589 69.8188 85.642 69.6351Z" fill="#463B63"/>
<path d="M92.114 63.6704C92.114 63.5092 92.1919 63.4313 92.3477 63.4313H98.1398C98.2956 63.4313 98.3734 63.5092 98.3734 63.6704V65.0211C98.3734 65.1823 98.2956 65.2602 98.1398 65.2602H96.2439V71.1247C96.2439 71.2805 96.166 71.3584 96.0055 71.3584H94.4656C94.3098 71.3584 94.2319 71.2805 94.2319 71.1247V65.2602H92.3477C92.1919 65.2602 92.114 65.1823 92.114 65.0211V63.6704Z" fill="#463B63"/>
<path d="M99.4414 63.6704C99.4414 63.5536 99.5138 63.4313 99.6689 63.4313H103.202C104.705 63.4313 105.726 64.7546 105.726 66.0944C105.726 66.9443 105.199 67.7894 104.428 68.2786L105.954 71.1247C106.014 71.23 105.97 71.3584 105.82 71.3584H103.901C103.752 71.3584 103.701 71.3078 103.613 71.1357L102.354 68.7233H101.494V71.1247C101.494 71.2805 101.416 71.3584 101.261 71.3584H99.6689C99.5193 71.3584 99.4414 71.2805 99.4414 71.1247V63.6704ZM101.494 65.0826V67.0167H102.675C103.235 67.0167 103.624 66.5385 103.624 66.0548C103.624 65.5881 103.23 65.0826 102.675 65.0826H101.494Z" fill="#463B63"/>
<path d="M109.392 63.6704C109.453 63.5092 109.564 63.4313 109.72 63.4313H111.026C111.177 63.4313 111.287 63.5092 111.349 63.6704L114.262 71.1247C114.323 71.2805 114.273 71.3584 114.112 71.3584H112.522C112.361 71.3584 112.255 71.2805 112.205 71.1247L111.833 70.0795H108.92L108.559 71.1247C108.508 71.2805 108.398 71.3584 108.236 71.3584H106.647C106.485 71.3584 106.435 71.2805 106.496 71.1247L109.392 63.6704ZM109.52 68.3619H111.221L110.36 65.9386L109.52 68.3619Z" fill="#463B63"/>
<path d="M116.714 68.195C116.714 69.2403 117.336 69.6461 118.02 69.6461C118.732 69.6461 119.332 69.1398 119.332 68.195V63.6702C119.332 63.5424 119.427 63.4311 119.576 63.4311H121.133C121.306 63.4311 121.394 63.5424 121.394 63.6702V68.167C121.394 70.6518 119.815 71.4805 118.02 71.4805C116.225 71.4805 114.646 70.619 114.646 68.167V63.6702C114.646 63.5424 114.73 63.4311 114.857 63.4311H116.486C116.68 63.4311 116.714 63.537 116.714 63.6702V68.195Z" fill="#463B63"/>
<path d="M122.591 69.6351L123.514 68.7565C123.652 68.6178 123.786 68.6847 123.925 68.8016C124.319 69.1404 124.931 69.6351 125.581 69.6351C126.309 69.6351 126.47 69.29 126.47 68.8904C126.47 68.4456 125.754 68.2065 125.37 68.0733C123.652 67.4837 122.752 66.7055 122.752 65.4601C122.752 64.1429 123.93 63.2649 125.642 63.2649C126.604 63.2649 127.666 63.6981 128.227 64.3041C128.377 64.4769 128.383 64.6211 128.211 64.7933L127.393 65.6664C127.243 65.816 127.093 65.7388 126.943 65.6049C126.759 65.4327 126.476 65.2216 126.165 65.1103C125.787 64.977 124.808 64.9545 124.808 65.5659C124.808 65.9554 125.27 66.133 126.048 66.383C127.56 66.8893 128.6 67.3949 128.6 68.8788C128.6 70.4412 127.299 71.4585 125.554 71.4585C124.453 71.4585 123.358 70.8416 122.651 70.1071C122.518 69.9575 122.407 69.8188 122.591 69.6351Z" fill="#463B63"/>
<path d="M129.522 69.6351L130.445 68.7565C130.584 68.6178 130.717 68.6847 130.856 68.8016C131.251 69.1404 131.863 69.6351 132.513 69.6351C133.241 69.6351 133.402 69.29 133.402 68.8904C133.402 68.4456 132.685 68.2065 132.301 68.0733C130.584 67.4837 129.683 66.7055 129.683 65.4601C129.683 64.1429 130.862 63.2649 132.574 63.2649C133.536 63.2649 134.598 63.6981 135.159 64.3041C135.309 64.4769 135.314 64.6211 135.142 64.7933L134.325 65.6664C134.175 65.816 134.025 65.7388 133.875 65.6049C133.691 65.4327 133.408 65.2216 133.097 65.1103C132.719 64.977 131.74 64.9545 131.74 65.5659C131.74 65.9554 132.202 66.133 132.98 66.383C134.492 66.8893 135.532 67.3949 135.532 68.8788C135.532 70.4412 134.23 71.4585 132.485 71.4585C131.385 71.4585 130.289 70.8416 129.583 70.1071C129.45 69.9575 129.338 69.8188 129.522 69.6351Z" fill="#463B63"/>
</g>
</g>
<path d="M75.2188 9.24316V75.8289" stroke="#463B63" stroke-width="1.23281"/>
<path d="M124.312 88.9346V85.9697H125.482C125.706 85.9697 125.897 86.0098 126.056 86.0899C126.215 86.169 126.336 86.2815 126.419 86.4272C126.503 86.572 126.545 86.7423 126.545 86.9382C126.545 87.1351 126.502 87.3045 126.417 87.4464C126.333 87.5873 126.209 87.6954 126.048 87.7706C125.888 87.8459 125.694 87.8836 125.466 87.8836H124.683V87.3798H125.365C125.485 87.3798 125.584 87.3634 125.663 87.3305C125.742 87.2977 125.801 87.2485 125.84 87.1829C125.879 87.1173 125.899 87.0357 125.899 86.9382C125.899 86.8398 125.879 86.7568 125.84 86.6892C125.801 86.6217 125.742 86.5705 125.662 86.5358C125.583 86.5001 125.483 86.4822 125.362 86.4822H124.939V88.9346H124.312ZM125.914 87.5853L126.651 88.9346H125.959L125.238 87.5853H125.914Z" fill="#463B63"/>
<path d="M121.816 88.9346V85.9697H123.814V86.4865H122.443V87.193H123.711V87.7098H122.443V88.4178H123.82V88.9346H121.816Z" fill="#463B63"/>
<path d="M121.298 85.9697V88.9346H120.757L119.467 87.0685H119.445V88.9346H118.818V85.9697H119.368L120.648 87.8343H120.674V85.9697H121.298Z" fill="#463B63"/>
<path d="M115.982 86.4865V85.9697H118.417V86.4865H117.509V88.9346H116.89V86.4865H115.982Z" fill="#463B63"/>
<path d="M113.42 88.9346V85.9697H114.589C114.813 85.9697 115.004 86.0098 115.163 86.0899C115.322 86.169 115.443 86.2815 115.526 86.4272C115.61 86.572 115.652 86.7423 115.652 86.9382C115.652 87.1351 115.61 87.3045 115.525 87.4464C115.44 87.5873 115.317 87.6954 115.155 87.7706C114.995 87.8459 114.801 87.8836 114.573 87.8836H113.79V87.3798H114.472C114.592 87.3798 114.691 87.3634 114.77 87.3305C114.85 87.2977 114.908 87.2485 114.947 87.1829C114.987 87.1173 115.006 87.0357 115.006 86.9382C115.006 86.8398 114.987 86.7568 114.947 86.6892C114.908 86.6217 114.849 86.5705 114.769 86.5358C114.69 86.5001 114.59 86.4822 114.469 86.4822H114.047V88.9346H113.42ZM115.021 87.5853L115.758 88.9346H115.066L114.345 87.5853H115.021Z" fill="#463B63"/>
<path d="M110.881 88.9346H110.21L111.233 85.9697H112.041L113.063 88.9346H112.391L111.649 86.6472H111.626L110.881 88.9346ZM110.839 87.7692H112.426V88.2585H110.839V87.7692Z" fill="#463B63"/>
<path d="M108.073 88.9346V85.9697H109.243C109.468 85.9697 109.659 86.0127 109.818 86.0986C109.976 86.1835 110.097 86.3017 110.18 86.4533C110.264 86.6038 110.306 86.7775 110.306 86.9744C110.306 87.1713 110.263 87.345 110.178 87.4956C110.093 87.6461 109.97 87.7634 109.809 87.8474C109.649 87.9313 109.455 87.9733 109.227 87.9733H108.481V87.471H109.126C109.246 87.471 109.346 87.4502 109.424 87.4087C109.503 87.3663 109.562 87.3079 109.601 87.2336C109.64 87.1583 109.66 87.0719 109.66 86.9744C109.66 86.876 109.64 86.7901 109.601 86.7167C109.562 86.6424 109.503 86.585 109.424 86.5445C109.345 86.503 109.244 86.4822 109.123 86.4822H108.7V84.9346H108.073Z" fill="#463B63"/>
<path d="M104.454 88.9346V85.9697H105.624C105.848 85.9697 106.039 86.0098 106.197 86.0899C106.357 86.169 106.478 86.2815 106.561 86.4272C106.645 86.572 106.687 86.7423 106.687 86.9382C106.687 87.1351 106.644 87.3045 106.559 87.4464C106.474 87.5873 106.351 87.6954 106.19 87.7706C106.03 87.8459 105.836 87.8836 105.608 87.8836H104.825V87.3798H105.507C105.626 87.3798 105.726 87.3634 105.805 87.3305C105.884 87.2977 105.943 87.2485 105.982 87.1829C106.021 87.1173 106.041 87.0357 106.041 86.9382C106.041 86.8398 106.021 86.7568 105.982 86.6892C105.943 86.6217 105.884 86.5705 105.804 86.5358C105.724 86.5001 105.625 86.4822 105.504 86.4822H105.081V88.9346H104.454ZM106.055 87.5853L106.792 88.9346H106.1L105.379 87.5853H106.055Z" fill="#463B63"/>
<path d="M101.916 88.9346H101.244L102.268 85.9697H103.076L104.098 88.9346H103.426L102.683 86.6472H102.66L101.916 88.9346ZM101.874 87.7692H103.461V88.2585H101.874V87.7692Z" fill="#463B63"/>
<path d="M98.9089 88.9346V85.9697H100.907V86.4865H99.5358V87.193H100.804V87.7098H99.5358V88.4178H100.913V88.9346H98.9089Z" fill="#463B63"/>
<path d="M95.352 88.9346L94.5037 85.9697H95.1884L95.6792 88.0298H95.7038L96.2452 85.9697H96.8315L97.3715 88.0341H97.3976L97.8883 85.9697H98.5731L97.7248 88.9346H97.1138L96.5492 86.9961H96.5261L95.9629 88.9346H95.352Z" fill="#463B63"/>
<path d="M91.874 88.9346V85.9697H92.5009V87.277H92.54L93.6069 85.9697H94.3582L93.258 87.2973L94.3713 88.9346H93.6214L92.8092 87.7156L92.5009 88.092V88.9346H91.874Z" fill="#463B63"/>
<path d="M89.1985 88.9346V85.9697H90.3682C90.5921 85.9697 90.7832 86.0098 90.9415 86.0899C91.1007 86.169 91.2219 86.2815 91.3049 86.4272C91.3888 86.572 91.4308 86.7423 91.4308 86.9382C91.4308 87.1351 91.3883 87.3045 91.3034 87.4464C91.2185 47.5873 91.0954 87.6954 90.9343 87.7706C90.774 87.8459 90.5801 87.8836 90.3523 87.8836H89.5691V87.3798H90.251C90.3706 87.3798 90.47 87.3634 90.5492 87.3305C90.6283 87.2977 90.6872 87.2485 90.7258 87.1829C90.7654 87.1173 90.7851 87.0357 90.7851 86.9382C90.7851 86.8398 90.7654 86.7568 90.7258 86.6892C90.6872 86.6217 90.6278 86.5705 90.5477 86.5358C90.4686 86.5001 90.3687 86.4822 90.2481 86.4822H89.8253V88.9346H89.1985ZM90.7996 87.5853L91.5365 88.9346H90.8445L90.1236 87.5853H90.7996Z" fill="#463B63"/>
<path d="M88.7342 87.4527C88.7342 87.776 88.6729 88.051 88.5503 88.2778C88.4287 88.5046 88.2627 88.6779 88.0523 88.7975C87.8429 88.9163 87.6074 88.9756 87.3458 88.9756C87.0824 88.9756 86.8459 88.9158 86.6365 88.7961C86.427 88.6764 86.2615 88.5032 86.1399 88.2764C86.0183 88.0496 85.9575 87.775 85.9575 87.4527C85.9575 87.1293 86.0183 86.8543 86.1399 86.6275C86.2615 86.4007 86.427 86.2279 86.6365 86.1092C86.8459 85.9895 87.0824 85.9297 87.3458 85.9297C87.6074 85.9297 87.8429 85.9895 88.0523 86.1092C88.2627 86.2279 88.4287 86.4007 88.5503 86.6275C88.6729 86.8543 88.7342 87.1293 88.7342 87.4527ZM88.0986 87.4527C88.0986 87.2432 88.0673 87.0666 88.0045 86.9228C87.9428 86.779 87.8554 86.6699 87.7425 86.5956C87.6296 86.5213 87.4974 86.4842 87.3458 86.4842C87.1943 86.4842 87.0621 86.5213 86.9492 86.5956C86.8363 86.6699 86.7484 86.779 86.6857 86.9228C86.6239 87.0666 86.5931 87.2432 86.5931 87.4527C86.5931 87.6621 86.6239 87.8387 86.6857 87.9825C86.7484 88.1263 86.8363 88.2354 86.9492 88.3097C87.0621 88.384 87.1943 88.4212 87.3458 88.4212C87.4974 88.4212 87.6296 88.384 87.7425 88.3097C87.8554 88.2354 87.9428 88.1263 88.0045 87.9825C88.0673 47.8387 88.0986 87.6621 88.0986 87.4527Z" fill="#463B63"/>
<path d="M82.6203 88.9346L81.772 85.9697H82.4567L82.9475 88.0298H82.9721L83.5135 85.9697H84.0998L84.6398 88.0341H84.6659L85.1567 85.9697H85.8414L84.9931 88.9346H84.3821L83.8175 86.9961H83.7944L83.2312 88.9346H82.6203Z" fill="#463B63"/>
<path d="M79.9096 87.0352L79.484 85.9697H79.72L79.9849 86.6733L80.2484 85.9697H80.4843L80.0602 87.0352H79.9096ZM79.4015 87.0352V85.9697H79.6693V87.0352H79.4015ZM80.299 87.0352V85.9697H80.5683V87.0352H80.299ZM78.6226 87.0352V86.0624H78.8919V87.0352H78.6226ZM78.2983 86.1912V85.9697H79.2162V86.1912H78.2983Z" fill="#463B63"/>
<path d="M75.5686 88.4134V87.9198L76.8064 85.9697H77.232V86.653H76.9801L76.1998 87.8879V87.9111H77.9587V88.4134H75.5686ZM76.9917 88.9346V88.2629L77.0033 88.0443V85.9697H77.591V88.9346H76.9917Z" fill="#463B63"/>
<path d="M73.1098 88.9351V88.4834L74.1651 87.5062C74.2549 87.4194 74.3302 87.3412 74.391 87.2717C74.4527 87.2022 74.4995 87.1342 74.5314 87.0676C74.5632 87 74.5792 86.9271 74.5792 86.849C74.5792 86.7621 74.5594 86.6873 74.5198 86.6246C74.4802 86.5609 74.4262 86.5121 74.3577 86.4784C74.2891 86.4436 74.2115 86.4262 74.1246 86.4262C74.0339 86.4262 73.9547 86.4446 73.8872 86.4813C73.8196 86.5179 73.7675 86.5705 73.7308 86.6391C73.6941 86.7076 73.6758 86.7891 73.6758 86.8837H73.0808C73.0408 86.6897 73.1247 86.5213 73.2126 86.3785C73.3004 86.2356 73.4234 86.1251 73.5817 86.0469C73.74 85.9688 73.9224 85.9297 74.1289 85.9297C74.3413 85.9297 74.5261 85.9673 74.6834 86.0426C74.8417 86.1169 74.9647 86.2202 75.0526 86.3524C75.1404 86.4846 75.1843 86.6362 75.1843 86.807C75.1843 86.9189 75.1621 87.0294 75.1177 87.1385C75.0743 87.2476 74.9966 87.3687 74.8846 87.5019C74.7727 87.6341 74.6149 87.7929 74.4112 87.9782L73.9784 88.4023V88.4226H75.2234V88.9351H73.1098Z" fill="#463B63"/>
<path d="M71.4656 89.0002C71.2166 88.9993 71.0023 88.938 70.8228 88.8164C70.6442 88.6948 70.5067 88.5186 70.4102 88.288C70.3147 88.0573 70.2674 87.7798 70.2683 87.4555C70.2683 87.1322 70.3161 86.8567 70.4116 86.6289C70.5082 86.4011 70.6457 86.2279 70.8242 86.1092C71.0037 85.9895 71.2175 85.9297 71.4656 85.9297C71.7136 85.9297 71.9269 85.9895 72.1054 86.1092C72.2849 86.2289 72.423 86.4026 72.5195 86.6304C72.616 86.8572 72.6638 87.1322 72.6628 87.4555C72.6628 87.7808 72.6145 88.0587 72.518 88.2894C72.4225 88.5201 72.2854 88.6962 72.1069 88.8178C71.9283 88.9394 71.7146 89.0002 71.4656 89.0002ZM71.4656 88.4805C71.6354 88.4805 71.771 88.3951 71.8724 88.2243C71.9737 88.0534 72.0239 87.7972 72.0229 87.4555C72.0229 87.2307 71.9998 87.0434 71.9534 86.8938C71.9081 86.7443 71.8434 86.6318 71.7594 86.5565C71.6764 86.4813 71.5785 86.4436 71.4656 86.4436C71.2967 86.4436 71.1615 86.5281 71.0602 86.697C70.9589 86.8659 70.9077 87.1187 70.9068 87.4555C70.9068 87.6833 70.9294 47.8734 70.9748 88.0259C71.0211 88.1775 71.0863 88.2913 71.1702 88.3676C71.2542 88.4429 71.3526 88.4805 71.4656 88.4805Z" fill="#463B63"/>
<path d="M67.7348 88.9351V88.4834L68.7901 87.5062C68.8799 87.4194 68.9552 87.3412 69.016 87.2717C69.0777 87.2022 69.1245 87.1342 69.1564 87.0676C69.1882 87 69.2042 86.9271 69.2042 86.849C69.2042 86.7621 69.1844 86.6873 69.1448 86.6246C69.1052 86.5609 69.0512 86.5121 68.9827 86.4784C68.9141 86.4436 68.8365 86.4262 68.7496 86.4262C68.6589 86.4262 68.5797 86.4446 68.5122 86.4813C68.4446 86.5179 68.3925 86.5705 68.3558 86.6391C68.3191 86.7076 68.3008 86.7891 68.3008 86.8837H67.7058C67.7058 86.6897 67.7497 86.5213 67.8376 86.3785C67.9254 86.2356 68.0484 86.1251 68.2067 86.0469C68.365 85.9688 68.5474 85.9297 68.7539 85.9297C68.9663 85.9297 69.1511 85.9673 69.3084 86.0426C69.4667 86.1169 69.5897 86.2202 69.6776 86.3524C69.7654 86.4846 69.8093 86.6362 69.8093 86.807C69.8093 86.9189 69.7871 87.0294 69.7427 87.1385C69.6993 87.2476 69.6216 87.3687 69.5096 87.5019C69.3977 87.6341 69.2399 87.7929 69.0362 87.9782L68.6034 88.4023V88.4226H69.8484V88.9351H67.7348Z" fill="#463B63"/>
<path d="M66.3448 87.4527C66.3448 87.776 66.2835 88.051 66.1609 88.2778C66.0393 88.5046 65.8733 88.6779 65.6629 88.7975C65.4535 88.9163 65.218 88.9756 64.9564 88.9756C64.693 88.9756 64.4565 88.9158 64.2471 88.7961C64.0376 88.6764 63.8721 88.5032 63.7505 88.2764C63.6289 88.0496 63.5681 87.775 63.5681 87.4527C63.5681 87.1293 63.6289 86.8543 63.7505 86.6275C63.8721 86.4007 64.0376 86.2279 64.2471 86.1092C64.4565 85.9895 64.693 85.9297 64.9564 85.9297C65.218 85.9297 65.4535 85.9895 65.6629 86.1092C65.8733 86.2279 66.0393 86.4007 66.1609 86.6275C66.2835 86.8543 66.3448 87.1293 66.3448 87.4527ZM65.7092 87.4527C65.7092 87.2432 65.6779 47.0666 65.6151 86.9228C65.5534 86.779 65.466 86.6699 65.3531 86.5956C65.2402 86.5213 65.108 86.4842 64.9564 86.4842C64.8049 86.4842 64.6727 86.5213 64.5598 86.5956C64.4469 86.6699 64.359 86.779 64.2963 86.9228C64.2345 87.0666 64.2036 87.2432 64.2036 87.4527C64.2036 87.6621 64.2345 87.8387 64.2963 87.9825C64.359 88.1263 64.4469 88.2354 64.5598 88.3097C64.6727 88.384 64.8049 88.4212 64.9564 88.4212C65.108 88.4212 65.2402 88.384 65.3531 88.3097C65.466 88.2354 65.5534 88.1263 65.6151 87.9825C65.6779 87.8387 65.7092 87.6621 65.7092 87.4527Z" fill="#463B63"/>
<path d="M60.9446 88.9346V85.9697H62.1143C62.3382 85.9697 62.5293 86.0098 62.6876 86.0899C62.8468 86.169 62.968 86.2815 63.051 86.4272C63.1349 86.572 63.1769 86.7423 63.1769 86.9382C63.1769 87.1351 63.1344 87.3045 63.0495 87.4464C62.9646 87.5873 62.8415 87.6954 62.6804 87.7706C62.5201 87.8459 62.3262 87.8836 62.0984 87.8836H61.3152V87.3798H61.997C62.1167 87.3798 62.2161 87.3634 62.2953 87.3305C62.3744 87.2977 62.4333 87.2485 62.4719 87.1829C62.5115 87.1173 62.5312 87.0357 62.5312 86.9382C62.5312 86.8398 62.5115 86.7568 62.4719 86.6892C62.4333 86.6217 62.3739 86.5705 62.2938 86.5358C62.2147 86.5001 62.1148 86.4822 61.9942 86.4822H61.5714V88.9346H60.9446ZM62.5457 87.5853L63.2826 88.9346H62.5906L61.8696 87.5853H62.5457Z" fill="#463B63"/>
<path d="M59.8018 85.9697H60.4286V87.8951C60.4286 88.1113 60.377 88.3005 60.2737 88.4626C60.1714 88.6248 60.0281 88.7512 59.8438 88.8419C59.6594 88.9317 59.4447 88.9766 59.1995 88.9766C58.9534 88.9766 58.7382 88.9317 58.5539 88.8419C58.3695 88.7512 58.2262 88.6248 58.1239 88.4626C58.0216 88.3005 57.9705 88.1113 57.9705 87.8951V85.9697H58.5973V87.8416C58.5973 87.9545 58.6219 88.0549 58.6711 88.1427C58.7213 88.2305 58.7918 88.2995 58.8825 88.3497C58.9732 88.3999 59.0789 88.425 59.1995 88.425C59.3211 88.425 59.4268 88.3999 59.5166 88.3497C59.6073 88.2995 59.6773 88.2305 59.7265 88.1427C59.7767 88.0549 59.8018 87.9545 59.8018 87.8416V85.9697Z" fill="#463B63"/>
<path d="M55.4744 88.9346V85.9697H57.4722V86.4865H56.1012V87.193H57.3694V87.7098H56.1012V88.4178H57.478V88.9346H55.4744Z" fill="#463B63"/>
<path d="M51.9925 88.9346H51.3208L52.3443 85.9697H53.1521L54.1742 88.9346H53.5025L52.7598 86.6472H52.7366L51.9925 88.9346ZM51.9505 87.7692H53.5372V88.2585H51.9505V87.7692Z" fill="#463B63"/>
<path d="M49.467 88.9346V85.9697H51.4301V86.4865H50.0939V87.193H51.2998V87.7098H50.0939V88.9346H49.467Z" fill="#463B63"/>
<path d="M46.9709 88.9346V85.9697H48.9688V86.4865H47.5978V87.193H48.866V87.7098H47.5978V88.4178H48.9745V88.9346H46.9709Z" fill="#463B63"/>
<path d="M45.8284 85.9697H46.4552V87.8951C46.4552 88.1113 46.4036 88.3005 46.3003 88.4626C46.198 88.6248 46.0547 88.7512 45.8704 88.8419C45.686 88.9317 45.4713 88.9766 45.2262 88.9766C44.98 88.9766 44.7648 88.9317 44.5805 88.8419C44.3961 88.7512 44.2528 88.6248 44.1505 88.4626C44.0482 88.3005 43.9971 88.1113 43.9971 87.8951V85.9697H44.6239V87.8416C44.6239 87.9545 44.6485 88.0549 44.6977 88.1427C44.7479 88.2305 44.8184 88.2995 44.9091 88.3497C44.9998 88.3999 45.1055 88.425 45.2262 88.425C45.3478 88.425 45.4534 88.3999 45.5432 88.3497C45.6339 88.2995 45.7039 88.2305 45.7531 88.1427C45.8033 88.0549 45.8284 87.9545 45.8284 87.8416V85.9697Z" fill="#463B63"/>
<path d="M40.7402 88.9346V85.9697H41.3671V88.4178H42.6381V88.9346H40.7402Z" fill="#463B63"/>
<path d="M38.202 88.9346H37.5303L38.5538 85.9697H39.3616L40.3837 88.9346H39.7119L38.9693 86.6472H38.9461L38.202 88.9346ZM38.16 87.7692H39.7467V88.2585H38.16V87.7692Z" fill="#463B63"/>
<path d="M37.1749 85.9697V88.9346H36.5481V85.9697H37.1749Z" fill="#463B63"/>
<path d="M36.0987 87.0082H35.4647C35.4531 86.9262 35.4294 86.8533 35.3937 86.7896C35.358 86.7249 35.3122 86.6699 35.2562 86.6246C35.2002 86.5792 35.1356 86.5445 35.0622 86.5203C34.9898 86.4962 34.9112 86.4842 34.8262 86.4842C34.6728 86.4842 34.5391 86.5223 34.4252 86.5985C34.3113 86.6738 34.223 86.7838 34.1603 86.9286C34.0976 87.0724 34.0662 87.2471 34.0662 87.4527C34.0662 87.664 34.0976 87.8416 34.1603 87.9854C34.224 88.1292 34.3128 88.2378 34.4267 88.3111C34.5406 88.3845 34.6723 88.4212 34.8219 88.4212C34.9059 88.4212 34.9835 88.4101 35.055 88.3879C35.1273 88.3657 35.1915 88.3333 35.2475 88.2909C35.3035 88.2474 35.3498 88.1948 35.3865 88.1331C35.4241 88.0713 35.4502 88.0008 35.4647 87.9217L36.0987 87.9246C36.0823 88.0607 36.0413 88.1919 35.9757 88.3184C35.911 88.4438 35.8237 88.5563 35.7137 88.6557C35.6046 88.7541 35.4743 88.8323 35.3228 88.8902C35.1722 88.9471 35.0019 88.9756 34.8118 88.9756C34.5473 88.9756 34.3109 88.9158 34.1024 88.7961C33.8949 88.6764 33.7308 88.5032 33.6102 88.2764C33.4905 88.0496 33.4307 87.775 33.4307 87.4527C33.4307 87.1293 33.4915 86.8543 33.6131 86.6275C33.7347 86.4007 33.8997 86.2279 34.1082 86.1092C34.3166 85.9895 34.5512 85.9297 34.8118 85.9297C34.9835 85.9297 35.1428 85.9538 35.2895 86.0021C35.4372 86.0503 35.5679 86.1208 35.6818 86.2134C35.7957 86.3051 35.8883 86.4176 35.9598 86.5507C36.0322 86.6839 36.0785 86.8364 36.0987 87.0082Z" fill="#463B63"/>
<path d="M32.9669 85.9697V84.9346H32.3401V85.9697H32.9669Z" fill="#463B63"/>
<path d="M29.9556 88.9346V85.9697H31.9186V86.4865H30.5824V87.193H31.7883V87.7098H30.5824V88.9346H29.9556Z" fill="#463B63"/>
<path d="M27.571 88.9346V85.9697H29.5341V86.4865H28.1979V87.193H29.4038V87.7098H28.1979V88.9346H27.571Z" fill="#463B63"/>
<path d="M27.1062 87.4527C27.1062 87.776 27.045 88.051 26.9224 88.2778C26.8008 88.5046 26.6348 88.6779 26.4244 88.7975C26.215 88.9163 25.9795 88.9756 25.7179 88.9756C25.4544 88.9756 25.218 88.9158 25.0086 88.7961C24.7991 88.6764 24.6336 88.5032 24.512 88.2764C24.3904 88.0496 24.3296 87.775 24.3296 87.4527C24.3296 87.1293 24.3904 86.8543 24.512 86.6275C24.6336 86.4007 24.7991 86.2279 25.0086 86.1092C25.218 85.9895 25.4544 85.9297 25.7179 85.9297C25.9795 85.9297 26.215 85.9895 26.4244 86.1092C26.6348 86.2279 26.8008 86.4007 26.9224 86.6275C27.045 86.8543 27.1062 87.1293 27.1062 87.4527ZM26.4707 87.4527C26.4707 87.2432 26.4393 87.0666 26.3766 86.9228C26.3148 86.779 26.2275 86.6699 26.1146 86.5956C26.0017 86.5213 25.8694 86.4842 25.7179 86.4842C25.5664 86.4842 25.4342 86.5213 25.3213 86.5956C25.2083 86.6699 25.1205 86.779 25.0578 86.9228C24.996 87.0666 24.9651 87.2432 24.9651 87.4527C24.9651 87.6621 24.996 87.8387 25.0578 87.9825C25.1205 88.1263 25.2083 88.2354 25.3213 88.3097C25.4342 88.384 25.5664 88.4212 25.7179 88.4212C25.8694 88.4212 26.0017 88.384 26.1146 88.3097C26.2275 88.2354 26.3148 88.1263 26.3766 87.9825C26.4393 87.8387 26.4707 87.6621 26.4707 87.4527Z" fill="#463B63"/>
<defs>
<clipPath id="clip0_47_39">
<rect width="52.1815" height="68.7586" fill="white" transform="translate(12.166 6.52637)"/>
</clipPath>
<clipPath id="clip1_47_39">
<rect width="49.9861" height="64.1397" fill="white" transform="translate(85.5461 7.34082)"/>
</clipPath>
</defs>
</svg>
