<svg preserveAspectRatio="none" width="100%" height="100%" overflow="visible" style="display: block;" viewBox="0 0 148 96" fill="none" xmlns="http://www.w3.org/2000/svg">
<g id="gutberlet-energiekonzepte_logo-schwarz 1">
<g id="Group">
<path id="Vector" d="M66.6048 39.1082C65.7159 40.0871 64.6908 40.5778 63.5293 40.5778C62.8831 40.5778 62.286 40.4388 61.7434 40.1607C61.1981 39.8826 60.7264 39.5145 60.3284 39.0564C59.9276 38.5984 59.6167 38.0776 59.3904 37.4996C59.1669 36.9189 59.0524 36.3245 59.0524 35.7137C59.0524 35.103 59.1614 34.465 59.3823 33.8788C59.6031 33.2953 59.9112 32.78 60.3065 32.3356C60.7019 31.8912 61.1709 31.5367 61.708 31.2695C62.2478 31.0051 62.8367 30.8715 63.4747 30.8715C63.941 30.8715 64.369 30.9233 64.7562 31.0269C65.1434 31.1305 65.4869 31.275 65.7868 31.4577C66.0867 31.6431 66.3485 31.8612 66.5693 32.1175C66.7902 32.3738 66.9756 32.6546 67.1283 32.96L66.4003 33.4453C66.0867 32.8509 65.6778 32.4174 65.1734 32.1366C64.669 31.8585 64.0991 31.7194 63.4611 31.7194C62.9294 31.7194 62.4523 31.8312 62.0242 32.0575C61.5962 32.2811 61.2336 32.581 60.9309 32.9545C60.631 33.328 60.3992 33.7534 60.2357 34.236C60.0748 34.7158 59.993 35.2121 59.993 35.7246C59.993 36.2645 60.0857 36.7771 60.2684 37.2624C60.4538 37.7477 60.7073 38.173 61.0291 38.5357C61.3535 38.8983 61.7325 39.19 62.1688 39.4054C62.605 39.6208 63.0794 39.7299 63.592 39.7299C64.14 39.7299 64.6635 39.6017 65.1625 39.3454C65.6614 39.0892 66.1413 38.6829 66.5993 38.124V36.5317H64.4699V35.8037H67.3955V40.5097H66.5993V39.1082H66.6048Z" fill="var(--fill-0, #463B63)"/>
<path id="Vector_2" d="M73.9009 39.7301C74.5035 39.7301 75.0052 39.6156 75.4032 39.3866C75.804 39.1575 76.123 38.8576 76.3602 38.4841C76.5974 38.1106 76.7638 37.6852 76.8592 37.2108C76.9546 36.7337 77.001 36.2538 77.001 35.7685V30.9399H77.9443V35.7658C77.9443 36.412 77.8734 37.0254 77.7289 37.6062C77.5844 38.1869 77.3527 38.6968 77.0337 39.1357C76.7147 39.5774 76.2975 39.9264 75.7877 40.1882C75.2751 40.4499 74.6507 40.5781 73.9146 40.5781C73.1784 40.5781 72.524 40.4417 72.006 40.1663C71.488 39.891 71.0735 39.5311 70.76 39.0812C70.4464 38.6313 70.2201 38.1187 70.0865 37.5435C69.9529 36.9682 69.8848 36.3738 69.8848 35.763V30.9399H70.8145V35.7658C70.8145 36.2702 70.8636 36.7582 70.9617 37.2354C71.0599 37.7125 71.2289 38.1351 71.4662 38.5032C71.7034 38.8713 72.0224 39.1684 72.4177 39.392C72.8131 39.6156 73.3065 39.7301 73.9009 39.7301Z" fill="var(--fill-0, #463B63)"/>
<path id="Vector_3" d="M87.6671 31.7742H84.2563V40.5127H83.3129V31.7742H79.902V30.9372H87.6698V31.7742H87.6671Z" fill="var(--fill-0, #463B63)"/>
<path id="Vector_4" d="M96.9699 38.0451C96.9699 38.405 96.899 38.7349 96.7545 39.0348C96.61 39.3348 96.4164 39.5965 96.1737 39.8174C95.9311 40.0382 95.6475 40.2072 95.323 40.3299C94.9986 40.4526 94.6523 40.5126 94.2842 40.5126H89.7664V30.9399H94.377C94.7096 30.9399 95.0095 31.0107 95.2794 31.1552C95.5494 31.2998 95.7784 31.4852 95.9665 31.7142C96.1546 31.9432 96.3019 32.205 96.4055 32.4967C96.5091 32.7884 96.5609 33.0829 96.5609 33.3801C96.5609 33.8654 96.4409 34.3071 96.1983 34.7079C95.9556 35.1087 95.6175 35.4059 95.1867 35.6049C95.7347 35.7658 96.1683 36.0684 96.4873 36.5074C96.8063 36.9491 96.9671 37.4617 96.9671 38.0451H96.9699ZM90.7125 31.7605V35.2941H94.0034C94.2379 35.2941 94.456 35.245 94.6578 35.1469C94.8595 35.0487 95.034 34.9178 95.1758 34.757C95.3203 34.5961 95.4321 34.408 95.5139 34.198C95.5957 33.9881 95.6366 33.7645 95.6366 33.53C95.6366 33.2956 95.5984 33.0583 95.5221 32.843C95.4457 32.6276 95.3367 32.4422 95.1976 32.284C95.0586 32.1259 94.895 32.0005 94.7041 31.9078C94.516 31.8123 94.3088 31.766 94.0852 31.766H90.7153L90.7125 31.7605ZM96.0238 37.8815C96.0238 37.6471 95.9829 37.4208 95.9011 37.1999C95.8193 36.9791 95.7048 36.7855 95.5575 36.6192C95.4103 36.4528 95.2331 36.3192 95.0313 36.2156C94.8296 36.112 94.6114 36.0602 94.377 36.0602H90.7098V39.6865H94.2842C94.5269 39.6865 94.7532 39.6374 94.9659 39.5393C95.1758 39.4411 95.3612 39.3075 95.5194 39.1412C95.6775 38.9749 95.8002 38.7813 95.8902 38.5604C95.9801 38.3396 96.0238 38.1133 96.0238 37.8788V37.8815Z" fill="var(--fill-0, #463B63)"/>
<path id="Vector_5" d="M105.856 39.6756V40.5126H99.4237V30.9399H105.733V31.7769H100.367V35.2286H105.046V36.0248H100.367V39.6783H105.856V39.6756Z" fill="var(--fill-0, #463B63)"/>
<path id="Vector_6" d="M108.309 40.5126V30.9399H112.356C112.77 30.9399 113.149 31.0271 113.495 31.2016C113.842 31.3761 114.141 31.6051 114.392 31.8887C114.643 32.1722 114.839 32.494 114.979 32.8539C115.118 33.2138 115.188 33.5764 115.188 33.9472C115.188 34.318 115.137 34.6315 115.033 34.9505C114.929 35.2695 114.785 35.5558 114.602 35.8148C114.417 36.0711 114.196 36.2865 113.934 36.461C113.673 36.6355 113.381 36.7555 113.059 36.8182L115.404 40.5126H114.338L112.086 36.9791H109.253V40.5126H108.309ZM109.253 36.1448H112.38C112.658 36.1448 112.912 36.0848 113.141 35.9621C113.37 35.8394 113.566 35.6758 113.727 35.4686C113.888 35.2614 114.013 35.0296 114.103 34.7679C114.193 34.5061 114.237 34.2335 114.237 33.9445C114.237 33.6555 114.185 33.3801 114.081 33.1156C113.978 32.8511 113.839 32.6194 113.664 32.4203C113.49 32.224 113.283 32.0659 113.043 31.9487C112.805 31.8314 112.555 31.7742 112.296 31.7742H109.247V36.142L109.253 36.1448Z" fill="var(--fill-0, #463B63)"/>
<path id="Vector_7" d="M117.79 40.5126V30.9399H118.733V39.6783H124.262V40.5153H117.79V40.5126Z" fill="var(--fill-0, #463B63)"/>
<path id="Vector_8" d="M132.755 39.6756V40.5126H126.323V30.9399H132.633V31.7769H127.267V35.2286H131.946V36.0248H127.267V39.6783H132.755V39.6756Z" fill="var(--fill-0, #463B63)"/>
<path id="Vector_9" d="M142.006 31.7742H138.595V40.5127H137.652V31.7742H134.241V30.9372H142.009V31.7742H142.006Z" fill="var(--fill-0, #463B63)"/>
<path id="Vector_10" d="M66.1331 52.6483V54.5895H59.4041V45.0168H66.0104V46.958H61.6153V48.8202H65.3915V50.6143H61.6153V52.651H66.1331V52.6483Z" fill="var(--fill-0, #463B63)"/>
<path id="Vector_11" d="M72.6603 49.1175V54.5923H70.4491V45.0196H72.175L76.6383 50.6416V45.0196H78.8495V54.5923H77.0691L72.6603 49.1175Z" fill="var(--fill-0, #463B63)"/>
<path id="Vector_12" d="M90.3772 52.6483V54.5895H83.6482V45.0168H90.2545V46.958H85.8594V48.8202H89.6356V50.6143H85.8594V52.651H90.3772V52.6483Z" fill="var(--fill-0, #463B63)"/>
<path id="Vector_13" d="M94.6933 54.5895V45.0168H99.0094C99.4593 45.0168 99.8737 45.1122 100.255 45.3003C100.637 45.4885 100.967 45.7366 101.245 46.0419C101.523 46.3473 101.741 46.6936 101.899 47.0807C102.058 47.4679 102.137 47.8578 102.137 48.2531C102.137 48.5503 102.101 48.8339 102.028 49.1093C101.957 49.3846 101.853 49.6409 101.717 49.8836C101.58 50.1262 101.417 50.3444 101.223 50.5379C101.03 50.7315 100.812 50.8951 100.569 51.0314L102.671 54.5923H100.176L98.3414 51.5031H96.8991V54.5923H94.6879L94.6933 54.5895ZM96.9045 49.5728H98.9276C99.1893 49.5728 99.4129 49.4501 99.601 49.202C99.7892 48.9538 99.8846 48.6376 99.8846 48.2504C99.8846 47.8632 99.7755 47.5415 99.5601 47.307C99.3447 47.0726 99.1103 46.9553 98.8594 46.9553H96.9045V49.57V49.5728Z" fill="var(--fill-0, #463B63)"/>
<path id="Vector_14" d="M113.274 53.6462C112.546 54.3196 111.707 54.6577 110.752 54.6577C110.122 54.6577 109.531 54.5377 108.972 54.3005C108.416 54.0633 107.928 53.728 107.508 53.2972C107.091 52.8664 106.761 52.3456 106.518 51.7403C106.275 51.1351 106.155 50.4671 106.155 49.7391C106.155 49.082 106.278 48.4631 106.518 47.8796C106.761 47.2961 107.096 46.7863 107.521 46.3555C107.949 45.9247 108.454 45.5839 109.037 45.3303C109.621 45.0795 110.251 44.9541 110.924 44.9541C111.813 44.9541 112.593 45.1395 113.258 45.513C113.923 45.8865 114.422 46.3964 114.755 47.0426L113.111 48.2831C112.895 47.8523 112.582 47.517 112.173 47.2798C111.764 47.0426 111.322 46.9226 110.845 46.9226C110.477 46.9226 110.142 46.9962 109.842 47.1462C109.542 47.2961 109.283 47.5006 109.067 47.7651C108.852 48.0296 108.686 48.3377 108.568 48.6894C108.451 49.0411 108.394 49.4174 108.394 49.8209C108.394 50.2244 108.457 50.617 108.582 50.966C108.707 51.3177 108.882 51.6204 109.108 51.8767C109.335 52.133 109.602 52.332 109.91 52.4765C110.221 52.621 110.564 52.6919 110.94 52.6919C111.805 52.6919 112.582 52.2911 113.274 51.4922V51.195H111.415V49.5919H115.109V54.595H113.274V53.6516V53.6462Z" fill="var(--fill-0, #463B63)"/>
<path id="Vector_15" d="M119.529 54.5895V45.0168H121.74V54.5895H119.529Z" fill="var(--fill-0, #463B63)"/>
<path id="Vector_16" d="M133.268 52.6483V54.5895H126.539V45.0168H133.145V46.958H128.75V48.8202H132.526V50.6143H128.75V52.651H133.268V52.6483Z" fill="var(--fill-0, #463B63)"/>
<path id="Vector_17" d="M137.153 51.8548V49.9136H141.306V51.8548H137.153Z" fill="var(--fill-0, #463B63)"/>
<path id="Vector_18" d="M59.4068 68.6693V59.0965H61.618V63.2217L65.1243 59.0965H67.6054L64.02 63.3716L67.848 68.672H65.326L62.6159 64.8167L61.618 65.8555V68.6747H59.4068V68.6693Z" fill="var(--fill-0, #463B63)"/>
<path id="Vector_19" d="M74.13 68.751C73.4211 68.751 72.7722 68.6119 72.1887 68.3338C71.6052 68.0557 71.1063 67.6877 70.6919 67.2351C70.2774 66.7797 69.9557 66.2617 69.7267 65.6782C69.4977 65.0947 69.3831 64.4922 69.3831 63.8705C69.3831 63.2489 69.5031 62.6354 69.7403 62.0492C69.9775 61.4658 70.3102 60.9505 70.7382 60.506C71.1663 60.0616 71.6707 59.7072 72.2542 59.44C72.8376 59.1755 73.4756 59.0419 74.1682 59.0419C74.8607 59.0419 75.526 59.181 76.1094 59.4591C76.6929 59.7372 77.1919 60.1052 77.6063 60.566C78.0207 61.0241 78.3397 61.5448 78.5633 62.131C78.7869 62.7145 78.9014 63.3089 78.9014 63.9114C78.9014 64.514 78.7814 65.1465 78.5442 65.7327C78.307 66.3162 77.9744 66.8315 77.5518 67.2759C77.1291 67.7204 76.6247 68.0775 76.0413 68.3475C75.4578 68.6174 74.8198 68.751 74.1273 68.751H74.13ZM71.6352 63.8978C71.6352 64.2659 71.6898 64.6231 71.7961 64.9693C71.9052 65.3156 72.0633 65.6237 72.276 65.8936C72.4859 66.1635 72.7504 66.3789 73.0639 66.5398C73.3775 66.7007 73.7374 66.7825 74.1436 66.7825C74.5499 66.7825 74.9343 66.6979 75.2506 66.5262C75.5641 66.3544 75.8259 66.1335 76.0331 65.8582C76.2403 65.5855 76.3957 65.2747 76.4993 64.9284C76.6029 64.5822 76.6547 64.2304 76.6547 63.8705C76.6547 63.5106 76.6002 63.1453 76.4939 62.799C76.3848 62.4528 76.2239 62.1474 76.0085 61.8829C75.7932 61.6185 75.5287 61.4058 75.2206 61.2504C74.9098 61.0922 74.5526 61.0132 74.1491 61.0132C73.7455 61.0132 73.3611 61.095 73.0503 61.264C72.7395 61.4303 72.4805 61.6484 72.2678 61.9184C72.0578 62.1883 71.8997 62.4964 71.7961 62.8427C71.6925 63.1889 71.6407 63.5406 71.6407 63.9005L71.6352 63.8978Z" fill="var(--fill-0, #463B63)"/>
<path id="Vector_20" d="M84.2835 63.1944V68.6693H82.0723V59.0965H83.7982L88.2615 64.7185V59.0965H90.4727V68.6693H88.6923L84.2835 63.1944Z" fill="var(--fill-0, #463B63)"/>
<path id="Vector_21" d="M93.6545 67.0115L98.644 61.0378H93.8426V59.0965H101.191V60.7542L96.4437 66.728H101.245V68.6693H93.6545V67.0115Z" fill="var(--fill-0, #463B63)"/>
<path id="Vector_22" d="M111.238 66.728V68.6693H104.509V59.0965H111.115V61.0378H106.72V62.9H110.496V64.694H106.72V66.7307H111.238V66.728Z" fill="var(--fill-0, #463B63)"/>
<path id="Vector_23" d="M114.474 68.6693V59.0965H118.558C119.016 59.0965 119.436 59.1919 119.818 59.38C120.2 59.5682 120.527 59.8163 120.802 60.1217C121.075 60.427 121.293 60.7733 121.448 61.1605C121.607 61.5476 121.686 61.9375 121.686 62.3329C121.686 62.7555 121.612 63.159 121.462 63.5461C121.315 63.9333 121.108 64.2796 120.84 64.5849C120.573 64.8903 120.254 65.133 119.875 65.3129C119.499 65.4929 119.079 65.5828 118.621 65.5828H116.68V68.672H114.469L114.474 68.6693ZM116.685 63.6525H118.493C118.755 63.6525 118.978 63.5407 119.166 63.3144C119.355 63.0881 119.45 62.7609 119.45 62.3301C119.45 62.1066 119.42 61.913 119.363 61.7494C119.305 61.5885 119.226 61.4522 119.125 61.3459C119.027 61.2368 118.913 61.1605 118.787 61.1086C118.662 61.0596 118.537 61.035 118.411 61.035H116.685V63.6498V63.6525Z" fill="var(--fill-0, #463B63)"/>
<path id="Vector_24" d="M132.055 61.0378H129.143V68.6693H126.931V61.0378H124.006V59.0965H132.055V61.0378Z" fill="var(--fill-0, #463B63)"/>
<path id="Vector_25" d="M141.75 66.728V68.6693H135.021V59.0965H141.627V61.0378H137.232V62.9H141.008V64.694H137.232V66.7307H141.75V66.728Z" fill="var(--fill-0, #463B63)"/>
</g>
<path id="Vector_26" d="M29.8269 45.9656V52.0593H41.0274C39.2143 58.1667 33.5541 62.6382 26.866 62.6382C18.7219 62.6382 12.0937 56.0127 12.0937 47.866C12.0937 39.7192 18.7192 33.0937 26.866 33.0937C32.5725 33.0937 37.6656 36.2838 40.1604 41.4205L45.6407 38.7567C43.9557 35.2859 41.341 32.3521 38.0828 30.2718C34.7346 28.1315 30.8548 27 26.866 27C15.3601 27 6 36.3601 6 47.866C6 59.3718 15.3601 68.7319 26.866 68.7319C34.342 68.7319 40.9102 64.7785 44.5964 58.8538V68.7319H50.6902V45.9656H29.8269Z" fill="var(--fill-0, #463B63)"/>
</g>
</svg>
