<svg width="148" height="96" viewBox="0 0 148 96" fill="none" xmlns="http://www.w3.org/2000/svg">
<path d="M36.0056 52.7169L38.0036 50.815C38.3038 50.5148 38.5922 50.6597 38.8939 50.9126C39.7487 51.6462 41.0708 52.7169 42.4787 52.7169C44.0552 52.7169 44.4043 51.97 44.4043 51.1049C44.4043 50.1421 42.8529 49.6245 42.0218 49.3361C38.3038 48.0598 36.3546 46.3754 36.3546 43.6794C36.3546 40.8281 38.9057 38.9277 42.6118 38.9277C44.6941 38.9277 46.9923 39.8653 48.2065 41.1771C48.5319 41.5512 48.5437 41.8633 48.171 42.236L46.4023 44.126C46.0769 44.4499 45.7515 44.2828 45.4277 43.9929C45.0298 43.6202 44.4161 43.1632 43.7432 42.9222C42.9254 42.6338 40.8061 42.585 40.8061 43.9086C40.8061 44.7516 41.8058 45.1361 43.4903 45.6773C46.7631 46.7732 49.0125 47.8676 49.0125 51.0798C49.0125 54.462 46.1967 56.6641 42.4196 56.6641C40.0371 56.6641 37.6664 55.3286 36.1387 53.7388C35.8489 53.4149 35.6093 53.1147 36.0056 52.7169Z" fill="#463B63"/>
<path d="M50.0154 39.8062C50.0154 39.4572 50.184 39.2886 50.5212 39.2886H63.0592C63.3964 39.2886 63.565 39.4572 63.565 39.8062V42.73C63.565 43.079 63.3964 43.2476 63.0592 43.2476H58.9553V55.9425C58.9553 56.2796 58.7867 56.4482 58.4392 56.4482H55.1057C54.7686 56.4482 54.6 56.2796 54.6 55.9425V43.2476H50.5212C50.184 43.2476 50.0154 43.079 50.0154 42.73V39.8062Z" fill="#463B63"/>
<path d="M65.8767 39.8062C65.8767 39.5533 66.0335 39.2886 66.3692 39.2886H74.018C77.2716 39.2886 79.4811 42.1532 79.4811 45.0534C79.4811 46.8931 78.3408 48.7225 76.6712 49.7814L79.9735 55.9425C80.1052 56.1702 80.009 56.4482 79.6852 56.4482H75.5309C75.2071 56.4482 75.0976 56.3388 74.9068 55.9661L72.1812 50.7441H70.3193V55.9425C70.3193 56.2796 70.1507 56.4482 69.815 56.4482H66.3692C66.0453 56.4482 65.8767 56.2796 65.8767 55.9425V39.8062ZM70.3193 42.8631V47.0499H72.8763C74.089 47.0499 74.9305 46.0146 74.9305 44.9676C74.9305 43.9575 74.0772 42.8631 72.8763 42.8631H70.3193Z" fill="#463B63"/>
<path d="M87.4167 39.8062C87.5484 39.4572 87.7894 39.2886 88.1266 39.2886H90.9543C91.2796 39.2886 91.5192 39.4572 91.6523 39.8062L97.9583 55.9425C98.0899 56.2796 97.982 56.4482 97.633 56.4482H94.1916C93.8425 56.4482 93.6133 56.2796 93.5054 55.9425L92.6994 53.6797H86.3934L85.6125 55.9425C85.5031 56.2796 85.2635 56.4482 84.913 56.4482H81.4731C81.124 56.4482 81.0161 56.2796 81.1477 55.9425L87.4167 39.8062ZM87.6933 49.9618H91.3758L89.5109 44.7162L87.6933 49.9618Z" fill="#463B63"/>
<path d="M103.266 49.6009C103.266 51.8636 104.614 52.7421 106.094 52.7421C107.635 52.7421 108.934 51.6462 108.934 49.6009V39.8062C108.934 39.5296 109.139 39.2885 109.463 39.2885H112.833C113.206 39.2885 113.398 39.5296 113.398 39.8062V49.5402C113.398 54.919 109.981 56.7129 106.094 56.7129C102.208 56.7129 98.7898 54.848 98.7898 49.5402V39.8062C98.7898 39.5296 98.9717 39.2885 99.2468 39.2885H102.774C103.194 39.2885 103.266 39.5178 103.266 39.8062V49.6009Z" fill="#463B63"/>
<path d="M115.986 52.7169L117.984 50.815C118.284 50.5148 118.574 50.6597 118.874 50.9126C119.728 51.6462 121.053 52.7169 122.459 52.7169C124.036 52.7169 124.385 51.97 124.385 51.1049C124.385 50.1421 122.833 49.6245 122.002 49.3361C118.284 48.0598 116.335 46.3754 116.335 43.6794C116.335 40.8281 118.886 38.9277 122.592 38.9277C124.675 38.9277 126.973 39.8653 128.187 41.1771C128.512 41.5512 128.526 41.8633 128.151 42.236L126.383 44.126C126.057 44.4499 125.733 44.2828 125.408 43.9929C125.01 43.6202 124.397 43.1632 123.724 42.9222C122.904 42.6338 120.787 42.585 120.787 43.9086C120.787 44.7516 121.786 45.1361 123.471 45.6773C126.744 46.7732 128.994 47.8676 128.994 51.0798C128.994 54.462 126.179 56.6641 122.4 56.6641C120.018 56.6641 117.647 55.3286 116.118 53.7388C115.829 53.4149 115.588 53.1147 115.986 52.7169Z" fill="#463B63"/>
<path d="M130.992 52.7169L132.99 50.815C133.29 50.5148 133.579 50.6597 133.88 50.9126C134.734 51.6462 136.059 52.7169 137.465 52.7169C139.042 52.7169 139.391 51.97 139.391 51.1049C139.391 50.1421 137.839 49.6245 137.008 49.3361C133.29 48.0598 131.341 46.3754 131.341 43.6794C131.341 40.8281 133.892 38.9277 137.598 38.9277C139.681 38.9277 141.979 39.8653 143.193 41.1771C143.518 41.5512 143.53 41.8633 143.158 42.236L141.389 44.126C141.063 44.4499 140.74 44.2828 140.414 43.9929C140.016 43.6202 139.403 43.1632 138.73 42.9222C137.912 42.6338 135.793 42.585 135.793 43.9086C135.793 44.7516 136.792 45.1361 138.477 45.6773C141.75 46.7732 144.001 47.8676 144.001 51.0798C144.001 54.462 141.183 56.6641 137.406 56.6641C135.024 56.6641 132.653 55.3286 131.124 53.7388C130.835 53.4149 130.594 53.1147 130.992 52.7169Z" fill="#463B63"/>
<path d="M28.0352 60.667C28.0498 60.6669 28.6777 60.6597 28.6777 60.0547V35.6123C28.6777 35.6005 28.6718 35.0002 28.0352 35H4.64355C4.64355 35 4.00012 35.0003 4 35.6123V60.0547C4 60.0547 4.00002 60.667 4.64355 60.667H28.0352ZM16.3379 47.6826C15.4583 47.6826 14.7471 46.971 14.7471 46.0928C14.7471 45.7357 14.8821 45.4005 15.082 45.1338C15.1904 44.9999 15.287 44.8697 15.3701 44.7178C15.4638 44.5059 15.4716 44.214 15.4805 43.9902C15.5363 42.5608 15.6169 40.7687 15.6533 39.8135C15.6581 39.0249 15.5434 38.1569 15.6729 37.3799C15.7567 36.5843 16.6185 36.1287 17.3164 36.4629C17.9514 36.7099 18.5133 37.1033 19.1064 37.4307L19.1904 37.4775C19.4689 37.6429 19.3022 37.7663 19.2441 37.792L19.2139 37.8008C19.0643 37.844 17.431 38.3174 17.4014 38.3252C17.3511 38.3388 17.2261 38.3641 17.1621 38.4385C17.0988 38.5137 17.0701 38.6114 17.0537 38.7344C16.9617 39.4334 17.061 42.5223 17.1963 43.9902C17.1988 44.018 17.2306 44.5504 17.3047 44.7178C17.3881 44.8696 17.4845 45 17.5928 45.1338C17.788 45.394 17.9267 45.7363 17.9268 46.0664C17.9268 46.9714 17.2176 47.6824 16.3379 47.6826ZM18.96 51.7236C19.0134 51.4022 18.9166 51.0912 18.6943 50.8701C18.4783 50.6555 18.1662 50.5585 17.8613 50.6113C17.8107 50.6198 17.7649 50.6312 17.7217 50.6455C17.4683 50.7297 16.8322 50.8516 16.3408 50.8516C15.8493 50.8515 15.2114 50.7296 14.958 50.6455C14.9148 50.6312 14.869 50.6198 14.8184 50.6113C14.5135 50.5586 14.2022 50.6556 13.9863 50.8701C13.7643 51.0912 13.6673 51.4021 13.7207 51.7236C13.7207 51.7236 14.0235 53.3127 14.1768 54.1279C10.8584 53.4584 7.49431 50.9889 7.49414 47.2734C7.49414 44.2987 9.67043 42.1433 12.1855 41.0303C13.3084 41.9388 14.202 43.044 14.5938 44.4346C14.5572 44.4887 14.4527 44.6191 14.4512 44.6211C14.1266 45.0452 13.9558 45.5359 13.9404 46.0186L13.9375 46.0889C13.9375 47.4133 15.0141 48.491 16.3398 48.4912C17.6661 48.4912 18.7422 47.4134 18.7422 46.0889C18.7422 46.0618 18.7416 46.0382 18.7402 46.0186C18.7245 45.5359 18.5471 45.0452 18.2266 44.6201C18.1851 44.5654 18.1237 44.489 18.0869 44.4346C18.4787 43.0439 19.3723 41.9389 20.4951 41.0303C23.0101 42.1433 25.1865 44.2989 25.1865 47.2734C25.1864 50.989 21.8214 53.4585 18.5029 54.1279C18.6566 53.3127 18.96 51.7236 18.96 51.7236ZM12.7314 59.4219C12.671 59.418 12.6299 59.3701 12.6299 59.3184V59.0879C12.6299 59.0521 12.6521 59.0139 12.6875 58.9941L15.3262 57.6553C15.3262 57.6553 15.3503 57.6433 15.3643 57.6348C15.3754 57.628 15.3886 57.6188 15.3994 57.6104C15.4974 57.5307 15.5829 57.4159 15.583 57.2832C15.583 57.2778 15.5797 57.2346 15.5664 57.1602C15.5664 57.1602 14.8291 53.199 14.5215 51.5938C14.501 51.4711 14.5812 51.3977 14.6816 51.415C15.0406 51.5322 15.7406 51.6669 16.3418 51.667C16.9105 51.667 17.6331 51.5322 17.9961 51.415C18.0969 51.3977 18.177 51.4711 18.1562 51.5938C17.8486 53.1991 17.1113 57.1602 17.1113 57.1602C17.0984 57.2345 17.0957 57.2778 17.0957 57.2832C17.0959 57.4159 17.182 57.53 17.2793 57.6104C17.2884 57.618 17.304 57.6277 17.3135 57.6338C17.3234 57.6396 17.3516 57.6553 17.3516 57.6553L19.9912 58.9941C20.0266 59.0139 20.0488 59.0521 20.0488 59.0879V59.3184C20.0488 59.3701 20.0069 59.4181 19.9463 59.4219H17.4248C17.3816 59.4219 17.3512 59.3923 17.3457 59.3838C17.0147 58.95 16.349 58.0921 16.3389 58.0791C16.3224 58.1003 15.6611 58.9522 15.332 59.3838C15.3263 59.3925 15.2964 59.4218 15.2539 59.4219H12.7314Z" fill="#463B63"/>
</svg>
