<svg width="42" height="42" viewBox="0 0 42 42" fill="none" xmlns="http://www.w3.org/2000/svg">
<g transform="translate(7.27 0.89)">
<path d="M17.938 26.4153C17.938 24.0936 16.0558 22.2114 13.734 22.2114C11.4122 22.2114 9.53003 24.0936 9.53003 26.4153C9.53003 28.7371 11.4122 30.6193 13.734 30.6193V39.0273C6.76863 39.0273 1.12207 33.3807 1.12207 26.4153C1.12207 19.45 6.76863 13.8034 13.734 13.8034C20.6994 13.8034 26.346 19.45 26.346 26.4153C26.346 33.3807 20.6994 39.0273 13.734 39.0273V30.6193C16.0558 30.6193 17.938 28.7371 17.938 26.4153Z" fill="#342854"/>
<path d="M22.142 1.19147C24.4638 1.19147 26.3459 3.07365 26.3459 5.39545V26.4153C26.3459 20.924 22.8364 16.2524 17.938 14.521V5.39545C17.938 3.07365 19.8202 1.19147 22.142 1.19147Z" fill="#A789F2"/>
<path d="M17.938 14.521C22.7982 16.2389 26.291 20.8512 26.3453 26.2868L26.3459 26.4154C26.3459 28.7371 24.4638 30.6193 22.142 30.6193C19.8202 30.6193 17.938 28.7371 17.938 26.4154V14.521Z" fill="#855CED"/>
</g>
</svg>
